<?xml version="1.0" encoding="UTF-8" standalone="no"?>
<svg
   xmlns:dc="http://purl.org/dc/elements/1.1/"
   xmlns:cc="http://creativecommons.org/ns#"
   xmlns:rdf="http://www.w3.org/1999/02/22-rdf-syntax-ns#"
   xmlns:svg="http://www.w3.org/2000/svg"
   xmlns="http://www.w3.org/2000/svg"
   xmlns:sodipodi="http://sodipodi.sourceforge.net/DTD/sodipodi-0.dtd"
   xmlns:inkscape="http://www.inkscape.org/namespaces/inkscape"
   id="svg8"
   version="1.1"
   viewBox="0 0 6.5836268 31.125"
   height="31.125mm"
   width="24.882999mm"
   sodipodi:docname="1.svg"
   inkscape:version="0.92.1 unknown">
  <sodipodi:namedview
     pagecolor="#ffffff"
     bordercolor="#666666"
     borderopacity="1"
     objecttolerance="10"
     gridtolerance="10"
     guidetolerance="10"
     inkscape:pageopacity="0"
     inkscape:pageshadow="2"
     inkscape:window-width="1816"
     inkscape:window-height="1164"
     id="namedview18"
     showgrid="false"
     inkscape:zoom="2.006158"
     inkscape:cx="-96.784228"
     inkscape:cy="58.818899"
     inkscape:window-x="104"
     inkscape:window-y="36"
     inkscape:window-maximized="1"
     inkscape:current-layer="svg8" />
  <defs
     id="defs2" />
  <metadata
     id="metadata5">
    <rdf:RDF>
      <cc:Work
         rdf:about="">
        <dc:format>image/svg+xml</dc:format>
        <dc:type
           rdf:resource="http://purl.org/dc/dcmitype/StillImage" />
        <dc:title></dc:title>
      </cc:Work>
    </rdf:RDF>
  </metadata>
  <path
     style="opacity:1;vector-effect:none;fill:#000000;fill-opacity:1;stroke:none;stroke-width:1.00157475;stroke-linecap:round;stroke-linejoin:round;stroke-miterlimit:4;stroke-dasharray:none;stroke-dashoffset:15;stroke-opacity:1"
     d="M 31.023438 -0.052734375 C 27.066295 -0.052734375 23.880859 3.1346693 23.880859 7.0917969 C 23.880859 11.048962 27.066295 14.234375 31.023438 14.234375 L 39.880859 14.234375 L 39.880859 103.4043 L 31.023438 103.4043 C 27.066272 103.4043 23.880859 106.58975 23.880859 110.54688 C 23.880859 114.50404 27.066272 117.68945 31.023438 117.68945 L 46.810547 117.68945 L 47.236328 117.68945 L 63.023438 117.68945 C 66.980565 117.68945 70.166016 114.50404 70.166016 110.54688 C 70.166016 106.58975 66.980565 103.4043 63.023438 103.4043 L 54.166016 103.4043 L 54.166016 14.234375 L 63.023438 14.234375 C 66.980565 14.234375 70.166016 11.048962 70.166016 7.0917969 C 70.166016 3.1346693 66.980565 -0.052734375 63.023438 -0.052734375 L 47.236328 -0.052734375 L 46.810547 -0.052734375 L 31.023438 -0.052734375 z "
     transform="matrix(0.26458334,0,0,0.26458334,-9.1496864,0)"
     id="rect4485-6-7-03-4-4-7-8-5-8" />
</svg>
