<?xml version="1.0" encoding="UTF-8" standalone="no"?>
<svg
   xmlns:dc="http://purl.org/dc/elements/1.1/"
   xmlns:cc="http://creativecommons.org/ns#"
   xmlns:rdf="http://www.w3.org/1999/02/22-rdf-syntax-ns#"
   xmlns:svg="http://www.w3.org/2000/svg"
   xmlns="http://www.w3.org/2000/svg"
   xmlns:sodipodi="http://sodipodi.sourceforge.net/DTD/sodipodi-0.dtd"
   xmlns:inkscape="http://www.inkscape.org/namespaces/inkscape"
   id="svg8"
   version="1.1"
   viewBox="0 0 8.3205058 31.125002"
   height="117.63779"
   width="118.857"
   sodipodi:docname="3.svg"
   inkscape:version="0.92.1 unknown">
  <sodipodi:namedview
     pagecolor="#ffffff"
     bordercolor="#666666"
     borderopacity="1"
     objecttolerance="10"
     gridtolerance="10"
     guidetolerance="10"
     inkscape:pageopacity="0"
     inkscape:pageshadow="2"
     inkscape:window-width="1816"
     inkscape:window-height="1164"
     id="namedview18"
     showgrid="false"
     inkscape:zoom="2.006158"
     inkscape:cx="22.847428"
     inkscape:cy="58.818899"
     inkscape:window-x="104"
     inkscape:window-y="36"
     inkscape:window-maximized="1"
     inkscape:current-layer="svg8"
     units="px" />
  <defs
     id="defs2" />
  <metadata
     id="metadata5">
    <rdf:RDF>
      <cc:Work
         rdf:about="">
        <dc:format>image/svg+xml</dc:format>
        <dc:type
           rdf:resource="http://purl.org/dc/dcmitype/StillImage" />
        <dc:title></dc:title>
      </cc:Work>
    </rdf:RDF>
  </metadata>
  <path
     style="opacity:1;vector-effect:none;fill:#000000;fill-opacity:1;stroke:none;stroke-width:1.00157464;stroke-linecap:round;stroke-linejoin:round;stroke-miterlimit:4;stroke-dasharray:none;stroke-dashoffset:15;stroke-opacity:1"
     d="M 7.1425781 -0.052734375 C 3.1854357 -0.052734375 0 3.1346696 0 7.0917969 C 0 11.048962 3.1854357 14.234375 7.1425781 14.234375 L 16 14.234375 L 16 103.4043 L 7.1425781 103.4043 C 3.1854131 103.4043 0 106.58975 0 110.54688 C 0 114.50404 3.1854131 117.68945 7.1425781 117.68945 L 39.142578 117.68945 C 39.8898 117.68945 40.609201 117.57421 41.285156 117.36328 C 41.961614 117.57455 42.67987 117.68945 43.427734 117.68945 L 75.427734 117.68945 C 76.174942 117.68945 76.894368 117.5742 77.570312 117.36328 C 78.24677 117.57455 78.96698 117.68945 79.714844 117.68945 L 111.71484 117.68945 C 115.67197 117.68945 118.85742 114.50404 118.85742 110.54688 C 118.85742 106.58975 115.67197 103.4043 111.71484 103.4043 L 102.85742 103.4043 L 102.85742 14.234375 L 111.71484 14.234375 C 115.67197 14.234375 118.85742 11.048962 118.85742 7.0917969 C 118.85742 3.1346696 115.67197 -0.052734375 111.71484 -0.052734375 L 79.714844 -0.052734375 C 78.966989 -0.052734375 78.246765 0.062167428 77.570312 0.2734375 C 76.894372 0.062519089 76.174938 -0.052734375 75.427734 -0.052734375 L 59.640625 -0.052734375 L 59.216797 -0.052734375 L 43.427734 -0.052734375 C 42.67988 -0.052734375 41.961608 0.062167428 41.285156 0.2734375 C 40.609204 0.06251147 39.889796 -0.052734375 39.142578 -0.052734375 L 7.1425781 -0.052734375 z M 41.285156 13.908203 C 41.961608 14.119471 42.67988 14.234375 43.427734 14.234375 L 52.285156 14.234375 L 52.285156 103.4043 L 43.427734 103.4043 C 42.67987 103.4043 41.961614 103.5192 41.285156 103.73047 C 40.609201 103.51954 39.8898 103.4043 39.142578 103.4043 L 30.285156 103.4043 L 30.285156 14.234375 L 39.142578 14.234375 C 39.889796 14.234375 40.609204 14.119127 41.285156 13.908203 z M 77.570312 13.908203 C 78.246765 14.119471 78.966989 14.234375 79.714844 14.234375 L 88.572266 14.234375 L 88.572266 103.4043 L 79.714844 103.4043 C 78.96698 103.4043 78.24677 103.5192 77.570312 103.73047 C 76.894368 103.51955 76.174942 103.4043 75.427734 103.4043 L 66.572266 103.4043 L 66.572266 14.234375 L 75.427734 14.234375 C 76.174938 14.234375 76.894372 14.11912 77.570312 13.908203 z "
     transform="matrix(0.26458335,0,0,0.26458335,-11.563539,0)"
     id="rect4485-6-7-03-4-4-7-8-5-8-8" />
</svg>
