<?xml version="1.0" encoding="UTF-8" standalone="no"?>
<svg
   xmlns:dc="http://purl.org/dc/elements/1.1/"
   xmlns:cc="http://creativecommons.org/ns#"
   xmlns:rdf="http://www.w3.org/1999/02/22-rdf-syntax-ns#"
   xmlns:svg="http://www.w3.org/2000/svg"
   xmlns="http://www.w3.org/2000/svg"
   xmlns:sodipodi="http://sodipodi.sourceforge.net/DTD/sodipodi-0.dtd"
   xmlns:inkscape="http://www.inkscape.org/namespaces/inkscape"
   id="svg8"
   version="1.1"
   viewBox="0 0 9.1238749 31.125002"
   height="117.63779"
   width="130.33299"
   sodipodi:docname="4.svg"
   inkscape:version="0.92.1 unknown">
  <sodipodi:namedview
     pagecolor="#ffffff"
     bordercolor="#666666"
     borderopacity="1"
     objecttolerance="10"
     gridtolerance="10"
     guidetolerance="10"
     inkscape:pageopacity="0"
     inkscape:pageshadow="2"
     inkscape:window-width="1816"
     inkscape:window-height="1164"
     id="namedview18"
     showgrid="false"
     inkscape:zoom="2.006158"
     inkscape:cx="22.847428"
     inkscape:cy="58.818899"
     inkscape:window-x="104"
     inkscape:window-y="36"
     inkscape:window-maximized="1"
     inkscape:current-layer="svg8"
     units="px" />
  <defs
     id="defs2" />
  <metadata
     id="metadata5">
    <rdf:RDF>
      <cc:Work
         rdf:about="">
        <dc:format>image/svg+xml</dc:format>
        <dc:type
           rdf:resource="http://purl.org/dc/dcmitype/StillImage" />
        <dc:title></dc:title>
      </cc:Work>
    </rdf:RDF>
  </metadata>
  <path
     style="opacity:1;vector-effect:none;fill:#000000;fill-opacity:1;stroke:none;stroke-width:1.00157464;stroke-linecap:round;stroke-linejoin:round;stroke-miterlimit:4;stroke-dasharray:none;stroke-dashoffset:15;stroke-opacity:1"
     d="M 7.1425781 -0.052734375 C 3.1854357 -0.052734375 0 3.1346696 0 7.0917969 C 0 11.048962 3.1854357 14.234375 7.1425781 14.234375 L 16 14.234375 L 16 103.4043 L 7.1425781 103.4043 C 3.1854131 103.4043 0 106.58975 0 110.54688 C 0 114.50404 3.1854131 117.68945 7.1425781 117.68945 L 22.929688 117.68945 L 23.355469 117.68945 L 39.142578 117.68945 C 43.099705 117.68945 46.285156 114.50404 46.285156 110.54688 C 46.285156 106.58975 43.099705 103.4043 39.142578 103.4043 L 30.285156 103.4043 L 30.285156 14.234375 L 39.142578 14.234375 C 39.889796 14.234375 40.609204 14.119127 41.285156 13.908203 C 41.961608 14.119473 42.67988 14.234375 43.427734 14.234375 L 50.289062 14.234375 C 50.310935 14.752449 50.38339 15.276163 50.523438 15.798828 L 76.40625 112.39258 C 76.432264 112.48966 76.468368 112.58075 76.498047 112.67578 C 76.526414 112.7665 76.552068 112.8579 76.583984 112.94727 C 76.632768 113.08439 76.687856 113.21722 76.744141 113.34961 C 76.779663 113.43278 76.814891 113.51596 76.853516 113.59766 C 76.917299 113.73322 76.987132 113.8641 77.058594 113.99414 C 77.0936 114.05758 77.127145 114.12125 77.164062 114.18359 C 77.253131 114.33458 77.348187 114.48029 77.447266 114.62305 C 77.475036 114.66297 77.502658 114.70282 77.53125 114.74219 C 77.635724 114.8863 77.745165 115.02518 77.859375 115.16016 C 77.894909 115.20211 77.930267 115.244 77.966797 115.28516 C 78.082081 115.41515 78.202269 115.53949 78.326172 115.66016 C 78.368412 115.70128 78.409806 115.74308 78.453125 115.7832 C 78.580613 115.90134 78.712279 116.01289 78.847656 116.12109 C 78.889051 116.15415 78.930446 116.18656 78.972656 116.21875 C 79.126818 116.33643 79.284287 116.44813 79.447266 116.55273 C 79.471462 116.56823 79.495112 116.58439 79.519531 116.59961 C 79.704396 116.71515 79.895157 116.82174 80.089844 116.91992 C 80.098979 116.92451 80.108027 116.92904 80.117188 116.93359 C 80.944964 117.34663 81.852712 117.59824 82.796875 117.66406 C 82.841151 117.66738 82.885488 117.67329 82.929688 117.67578 C 83.055388 117.68217 83.181881 117.68001 83.308594 117.67969 C 83.436043 117.68005 83.563027 117.68221 83.689453 117.67578 C 83.734932 117.67322 83.780612 117.66751 83.826172 117.66406 C 85.013391 117.58053 86.143601 117.20324 87.126953 116.58203 C 87.136496 116.57602 87.144788 116.56855 87.154297 116.5625 C 87.329744 116.45051 87.500761 116.33217 87.666016 116.20508 C 87.69291 116.18442 87.719532 116.16359 87.746094 116.14258 C 87.891025 116.0278 88.031997 115.90734 88.167969 115.78125 C 88.210558 115.74177 88.251424 115.7006 88.292969 115.66016 C 88.416872 115.53949 88.53706 115.41515 88.652344 115.28516 C 88.688873 115.244 88.724232 115.20211 88.759766 115.16016 C 88.871971 115.02755 88.979218 114.89143 89.082031 114.75 C 89.117062 114.70191 89.149791 114.65244 89.183594 114.60352 C 89.274001 114.47234 89.361362 114.33926 89.443359 114.20117 C 89.487052 114.12788 89.527317 114.05332 89.568359 113.97852 C 89.636668 113.85347 89.704398 113.72778 89.765625 113.59766 C 89.804249 113.51596 89.839477 113.43278 89.875 113.34961 C 89.931285 113.21722 89.986373 113.08439 90.035156 112.94727 C 90.067073 112.8579 90.092727 112.7665 90.121094 112.67578 C 90.150773 112.58075 90.186876 112.48966 90.212891 112.39258 L 116.09375 15.798828 C 116.2338 15.276163 116.30821 14.752449 116.33008 14.234375 L 123.18945 14.234375 C 127.1466 14.234375 130.33203 11.048924 130.33203 7.0917969 C 130.33203 3.1346318 127.1466 -0.052734375 123.18945 -0.052734375 L 101.18945 -0.052734375 C 97.232307 -0.052734375 94.046875 3.1346318 94.046875 7.0917969 C 94.046875 11.048924 97.232311 14.234375 101.18945 14.234375 L 101.72266 14.234375 L 83.308594 82.958984 L 64.896484 14.234375 L 65.427734 14.234375 C 69.384877 14.234375 72.572266 11.048924 72.572266 7.0917969 C 72.572266 3.1346318 69.384877 -0.052734375 65.427734 -0.052734375 L 43.427734 -0.052734375 C 42.679879 -0.052734375 41.961609 0.062169363 41.285156 0.2734375 C 40.609204 0.06251147 39.889796 -0.052734375 39.142578 -0.052734375 L 7.1425781 -0.052734375 z "
     transform="matrix(0.26458335,0,0,0.26458335,-12.680033,0)"
     id="rect4485-6-7-03-4-4-7-8-5-8-19" />
</svg>
