<?xml version="1.0" encoding="UTF-8" standalone="no"?>
<svg
   xmlns:dc="http://purl.org/dc/elements/1.1/"
   xmlns:cc="http://creativecommons.org/ns#"
   xmlns:rdf="http://www.w3.org/1999/02/22-rdf-syntax-ns#"
   xmlns:svg="http://www.w3.org/2000/svg"
   xmlns="http://www.w3.org/2000/svg"
   xmlns:sodipodi="http://sodipodi.sourceforge.net/DTD/sodipodi-0.dtd"
   xmlns:inkscape="http://www.inkscape.org/namespaces/inkscape"
   id="svg8"
   version="1.1"
   viewBox="0 0 6.5836978 31.125002"
   height="117.63779"
   width="94.046997"
   sodipodi:docname="5.svg"
   inkscape:version="0.92.1 unknown">
  <sodipodi:namedview
     pagecolor="#ffffff"
     bordercolor="#666666"
     borderopacity="1"
     objecttolerance="10"
     gridtolerance="10"
     guidetolerance="10"
     inkscape:pageopacity="0"
     inkscape:pageshadow="2"
     inkscape:window-width="1816"
     inkscape:window-height="1164"
     id="namedview18"
     showgrid="false"
     inkscape:zoom="2.0061581"
     inkscape:cx="-21.266743"
     inkscape:cy="38.880288"
     inkscape:window-x="104"
     inkscape:window-y="36"
     inkscape:window-maximized="1"
     inkscape:current-layer="svg8"
     units="px" />
  <defs
     id="defs2" />
  <metadata
     id="metadata5">
    <rdf:RDF>
      <cc:Work
         rdf:about="">
        <dc:format>image/svg+xml</dc:format>
        <dc:type
           rdf:resource="http://purl.org/dc/dcmitype/StillImage" />
        <dc:title></dc:title>
      </cc:Work>
    </rdf:RDF>
  </metadata>
  <path
     style="opacity:1;vector-effect:none;fill:#000000;fill-opacity:1;stroke:none;stroke-width:0.26499999;stroke-linecap:round;stroke-linejoin:round;stroke-miterlimit:4;stroke-dasharray:none;stroke-dashoffset:15;stroke-opacity:1"
     d="m -7.2599673,-0.01263182 c -1.046995,0 -1.8898072,0.84332402 -1.8898072,1.89032402 0,1.0469899 0.8428133,1.8898072 1.8898072,1.8898072 h 1.8153931 c 0.00579,0.1370738 0.024958,0.2756398 0.062012,0.4139282 L 1.4655989,29.738526 c 0.00584,0.0218 0.014131,0.04216 0.020672,0.06356 0.00912,0.02982 0.017862,0.05962 0.028422,0.08888 0.011885,0.03308 0.025217,0.06512 0.038757,0.09715 0.00986,0.0232 0.019719,0.04646 0.030489,0.06925 0.016875,0.03587 0.035352,0.0705 0.05426,0.104902 0.00926,0.01677 0.018137,0.03363 0.027905,0.05013 0.023566,0.03995 0.048716,0.0785 0.074931,0.116274 0.00735,0.01056 0.014655,0.02111 0.02222,0.03152 0.027642,0.03813 0.056598,0.07487 0.086816,0.110588 0.0094,0.01109 0.018756,0.02217 0.028422,0.03307 0.031267,0.03526 0.063491,0.06914 0.097152,0.101801 0.00936,0.0091 0.018857,0.01797 0.028422,0.02687 0.035898,0.03341 0.072834,0.06518 0.1111043,0.0956 0.00924,0.0074 0.018508,0.01453 0.027905,0.0217 0.041216,0.03152 0.083521,0.06142 0.1271241,0.0894 0.0064,0.0041 0.01266,0.0084 0.019121,0.01241 0.048912,0.03057 0.099384,0.05877 0.1508953,0.08475 0.00241,0.0013 0.00481,0.0024 0.00723,0.0036 0.1137764,0.05677 0.2328336,0.101947 0.3565676,0.134877 0.1137967,0.03028 0.2310389,0.04994 0.350366,0.05839 0.012414,0.0011 0.024815,0.0024 0.037207,0.0031 0.033258,0.0016 0.066726,0.0011 0.1002525,0.0011 0.033649,9e-5 0.06739,7.94e-4 0.100769,-0.0011 0.012033,-7.94e-4 0.024119,-0.0021 0.036174,-0.0031 0.054464,-0.0038 0.1082763,-0.0096 0.1617472,-0.0181 0.064094,-0.01016 0.1274027,-0.02373 0.1896526,-0.04031 0.1242639,-0.0331 0.2439093,-0.07877 0.3581175,-0.135908 1.404e-4,-7.2e-5 3.704e-4,6.9e-5 5.291e-4,0 3.441e-4,-1.75e-4 6.879e-4,-2.65e-4 0.00103,-5.29e-4 0.053825,-0.02698 0.1061005,-0.05638 0.1570963,-0.08837 0.00169,-0.0011 0.00347,-0.0021 0.00517,-0.0031 0.00251,-0.0016 0.00472,-0.0036 0.00723,-0.0052 0.04642,-0.02963 0.091669,-0.06094 0.1353924,-0.09457 0.00702,-0.0054 0.013734,-0.01106 0.020669,-0.01654 0.039979,-0.03165 0.078873,-0.06484 0.1162722,-0.09974 0.00785,-0.0073 0.015536,-0.01476 0.023254,-0.02223 0.036496,-0.03524 0.071728,-0.07179 0.10542,-0.110072 0.00614,-0.007 0.012054,-0.01413 0.018087,-0.02119 0.031903,-0.03735 0.062399,-0.07574 0.091467,-0.115755 0.00881,-0.01212 0.01732,-0.02439 0.025839,-0.03669 0.025503,-0.03694 0.049887,-0.07468 0.072864,-0.113689 0.00865,-0.01463 0.016555,-0.02959 0.024805,-0.04444 0.019738,-0.03568 0.038781,-0.07178 0.056327,-0.109038 0.011575,-0.02447 0.022032,-0.04945 0.032556,-0.07441 0.012811,-0.03053 0.025379,-0.06103 0.03669,-0.0925 0.01002,-0.02777 0.018666,-0.05597 0.027389,-0.08423 0.00707,-0.02294 0.015957,-0.04484 0.02222,-0.06821 L 11.966259,4.1814118 c 0.03706,-0.1382885 0.05674,-0.2768545 0.06253,-0.4139283 h 1.814878 c 1.046993,0 1.889805,-0.8428172 1.889805,-1.8898072 0,-1.04699997 -0.842812,-1.89032399 -1.889805,-1.89032399 H 8.0228218 c -1.046995,0 -1.8898072,0.84332402 -1.8898072,1.89032399 0,1.04699 0.8428133,1.8898072 1.8898072,1.8898072 H 8.1638984 L 3.2918442,21.951404 -1.5802103,3.7674994 h 0.1410766 c 1.04699418,0 1.88980725,-0.8428173 1.88980725,-1.8898072 0,-1.047 -0.84281307,-1.89032402 -1.88980725,-1.89032402 z"
     id="rect4485-4-64-6"
     inkscape:connector-curvature="0" />
</svg>
