<?xml version="1.0" encoding="UTF-8" standalone="no"?>
<svg
   xmlns:dc="http://purl.org/dc/elements/1.1/"
   xmlns:cc="http://creativecommons.org/ns#"
   xmlns:rdf="http://www.w3.org/1999/02/22-rdf-syntax-ns#"
   xmlns:svg="http://www.w3.org/2000/svg"
   xmlns="http://www.w3.org/2000/svg"
   xmlns:sodipodi="http://sodipodi.sourceforge.net/DTD/sodipodi-0.dtd"
   xmlns:inkscape="http://www.inkscape.org/namespaces/inkscape"
   id="svg8"
   version="1.1"
   viewBox="0 0 9.1238749 31.125002"
   height="117.63779"
   width="130.33299"
   sodipodi:docname="6.svg"
   inkscape:version="0.92.1 unknown">
  <sodipodi:namedview
     pagecolor="#ffffff"
     bordercolor="#666666"
     borderopacity="1"
     objecttolerance="10"
     gridtolerance="10"
     guidetolerance="10"
     inkscape:pageopacity="0"
     inkscape:pageshadow="2"
     inkscape:window-width="1816"
     inkscape:window-height="1164"
     id="namedview18"
     showgrid="false"
     inkscape:zoom="2.006158"
     inkscape:cx="22.847428"
     inkscape:cy="58.818899"
     inkscape:window-x="104"
     inkscape:window-y="36"
     inkscape:window-maximized="1"
     inkscape:current-layer="svg8"
     units="px" />
  <defs
     id="defs2" />
  <metadata
     id="metadata5">
    <rdf:RDF>
      <cc:Work
         rdf:about="">
        <dc:format>image/svg+xml</dc:format>
        <dc:type
           rdf:resource="http://purl.org/dc/dcmitype/StillImage" />
        <dc:title></dc:title>
      </cc:Work>
    </rdf:RDF>
  </metadata>
  <path
     style="opacity:1;vector-effect:none;fill:#000000;fill-opacity:1;stroke:none;stroke-width:1.00157464;stroke-linecap:round;stroke-linejoin:round;stroke-miterlimit:4;stroke-dasharray:none;stroke-dashoffset:15;stroke-opacity:1"
     d="M 7.1425781 -0.052734375 C 3.1854319 -0.052734375 0 3.1346318 0 7.0917969 C 7.1054274e-15 11.048924 3.1854357 14.234375 7.1425781 14.234375 L 14.001953 14.234375 C 14.023825 14.752449 14.098234 15.276163 14.238281 15.798828 L 40.121094 112.39258 C 40.143168 112.47496 40.174501 112.55191 40.199219 112.63281 C 40.234113 112.74692 40.268107 112.86068 40.308594 112.97266 C 40.350932 113.09027 40.39743 113.20424 40.445312 113.31836 C 40.485088 113.4127 40.524607 113.50715 40.568359 113.59961 C 40.634676 113.74043 40.706654 113.87686 40.78125 114.01172 C 40.811883 114.06688 40.842918 114.12146 40.875 114.17578 C 40.965326 114.32931 41.061445 114.47801 41.162109 114.62305 C 41.18988 114.66297 41.217502 114.70282 41.246094 114.74219 C 41.350568 114.8863 41.460008 115.02518 41.574219 115.16016 C 41.609752 115.20211 41.645111 115.244 41.681641 115.28516 C 41.799814 115.41841 41.921606 115.54648 42.048828 115.66992 C 42.08422 115.70426 42.120103 115.73785 42.15625 115.77148 C 42.291928 115.89776 42.431527 116.01783 42.576172 116.13281 C 42.611111 116.16057 42.646123 116.1877 42.681641 116.21484 C 42.83742 116.33399 42.99731 116.44696 43.162109 116.55273 C 43.186306 116.56823 43.209956 116.58439 43.234375 116.59961 C 43.41924 116.71515 43.610001 116.82174 43.804688 116.91992 C 43.813822 116.92451 43.822871 116.92904 43.832031 116.93359 C 44.656968 117.34521 45.561264 117.59718 46.501953 117.66406 C 46.549421 117.66768 46.597151 117.67313 46.644531 117.67578 C 46.770232 117.68217 46.896725 117.68001 47.023438 117.67969 C 47.150614 117.68003 47.278139 117.6822 47.404297 117.67578 C 47.449776 117.67322 47.495456 117.66751 47.541016 117.66406 C 48.486167 117.59757 49.394371 117.34408 50.222656 116.92969 C 50.222656 116.92969 50.224609 116.92969 50.224609 116.92969 C 50.436202 116.82376 50.641786 116.70838 50.841797 116.58203 C 50.85134 116.57602 50.859632 116.56855 50.869141 116.5625 C 51.044588 116.45051 51.215605 116.33217 51.380859 116.20508 C 51.407394 116.18469 51.432774 116.16331 51.458984 116.14258 C 51.607694 116.02486 51.751353 115.90111 51.890625 115.77148 C 51.926772 115.73785 51.962655 115.70426 51.998047 115.66992 C 52.12713 115.54467 52.251331 115.41464 52.371094 115.2793 C 52.402339 115.24401 52.432376 115.20775 52.462891 115.17188 C 52.579407 115.0348 52.69238 114.8946 52.798828 114.74805 C 52.832134 114.70229 52.86429 114.65589 52.896484 114.60938 C 52.992875 114.46976 53.085034 114.32713 53.171875 114.17969 C 53.204559 114.1244 53.234442 114.06787 53.265625 114.01172 C 53.340221 113.87686 53.412199 113.74043 53.478516 113.59961 C 53.522268 113.50715 53.561787 113.4127 53.601562 113.31836 C 53.649445 113.20424 53.695943 113.09027 53.738281 112.97266 C 53.78154 112.85302 53.818599 112.73144 53.855469 112.60938 C 53.877539 112.53625 53.905866 112.4669 53.925781 112.39258 L 79.808594 15.798828 C 79.948641 15.276163 80.02305 14.752449 80.044922 14.234375 L 86.904297 14.234375 C 87.651518 14.234375 88.370922 14.119129 89.046875 13.908203 C 89.722828 14.119127 90.442232 14.234375 91.189453 14.234375 L 100.04688 14.234375 L 100.04688 103.4043 L 91.189453 103.4043 C 87.232288 103.4043 84.046875 106.58975 84.046875 110.54688 C 84.046875 114.50404 87.232288 117.68945 91.189453 117.68945 L 106.97656 117.68945 L 107.40234 117.68945 L 123.18945 117.68945 C 127.14658 117.68945 130.33203 114.50404 130.33203 110.54688 C 130.33203 106.58975 127.14658 103.4043 123.18945 103.4043 L 114.33203 103.4043 L 114.33203 14.234375 L 123.18945 14.234375 C 127.14658 14.234375 130.33203 11.048962 130.33203 7.0917969 C 130.33203 3.1346696 127.14658 -0.052734375 123.18945 -0.052734375 L 91.189453 -0.052734375 C 90.442232 -0.052734375 89.722828 0.06251147 89.046875 0.2734375 C 88.370922 0.062513402 87.651518 -0.052734375 86.904297 -0.052734375 L 64.904297 -0.052734375 C 60.947151 -0.052734375 57.761719 3.1346318 57.761719 7.0917969 C 57.761719 11.048924 60.947154 14.234375 64.904297 14.234375 L 65.4375 14.234375 L 47.023438 82.957031 L 28.609375 14.234375 L 29.142578 14.234375 C 33.099721 14.234375 36.285156 11.048924 36.285156 7.0917969 C 36.285156 3.1346318 33.099721 -0.052734375 29.142578 -0.052734375 L 7.1425781 -0.052734375 z "
     transform="matrix(0.26458335,0,0,0.26458335,-12.680033,0)"
     id="rect4485-6-7-03-4-4-7-8-5-8-69" />
</svg>
