<?xml version="1.0" encoding="UTF-8" standalone="no"?>
<svg
   xmlns:dc="http://purl.org/dc/elements/1.1/"
   xmlns:cc="http://creativecommons.org/ns#"
   xmlns:rdf="http://www.w3.org/1999/02/22-rdf-syntax-ns#"
   xmlns:svg="http://www.w3.org/2000/svg"
   xmlns="http://www.w3.org/2000/svg"
   xmlns:sodipodi="http://sodipodi.sourceforge.net/DTD/sodipodi-0.dtd"
   xmlns:inkscape="http://www.inkscape.org/namespaces/inkscape"
   id="svg8"
   version="1.1"
   viewBox="0 0 11.664053 31.125002"
   height="117.63779"
   width="166.619"
   sodipodi:docname="7.svg"
   inkscape:version="0.92.1 unknown">
  <sodipodi:namedview
     pagecolor="#ffffff"
     bordercolor="#666666"
     borderopacity="1"
     objecttolerance="10"
     gridtolerance="10"
     guidetolerance="10"
     inkscape:pageopacity="0"
     inkscape:pageshadow="2"
     inkscape:window-width="1816"
     inkscape:window-height="1164"
     id="namedview18"
     showgrid="false"
     inkscape:zoom="2.8371358"
     inkscape:cx="92.44393"
     inkscape:cy="44.720173"
     inkscape:window-x="104"
     inkscape:window-y="36"
     inkscape:window-maximized="1"
     inkscape:current-layer="svg8"
     units="px" />
  <defs
     id="defs2" />
  <metadata
     id="metadata5">
    <rdf:RDF>
      <cc:Work
         rdf:about="">
        <dc:format>image/svg+xml</dc:format>
        <dc:type
           rdf:resource="http://purl.org/dc/dcmitype/StillImage" />
        <dc:title></dc:title>
      </cc:Work>
    </rdf:RDF>
  </metadata>
  <path
     style="opacity:1;vector-effect:none;fill:#000000;fill-opacity:1;stroke:none;stroke-width:0.26499999;stroke-linecap:round;stroke-linejoin:round;stroke-miterlimit:4;stroke-dasharray:none;stroke-dashoffset:15;stroke-opacity:1"
     d="m -14.320491,-0.0138095 c -1.046995,0 -1.889808,0.843324 -1.889808,1.890324 0,1.04699 0.842814,1.889807 1.889808,1.889807 h 1.815393 c 0.0058,0.137073 0.02496,0.27564 0.06201,0.413928 l 6.8481605,25.5570985 c 0.0058,0.0218 0.01413,0.04216 0.02067,0.06356 0.0092,0.03019 0.01823,0.06029 0.02894,0.08992 0.01069,0.02969 0.0226,0.05848 0.03462,0.08733 0.01178,0.02812 0.02358,0.05622 0.03669,0.08372 0.01573,0.03314 0.03266,0.06527 0.05013,0.09715 0.0096,0.01753 0.01926,0.03498 0.02946,0.05219 0.02357,0.03995 0.04872,0.0785 0.07493,0.116274 0.0073,0.01056 0.01466,0.02111 0.02222,0.03152 0.02764,0.03813 0.0566,0.07488 0.08682,0.110588 0.0094,0.0111 0.01876,0.02218 0.02842,0.03307 0.03127,0.03526 0.06349,0.06914 0.09715,0.101801 0.0094,0.0091 0.01886,0.01797 0.02842,0.02687 0.0359,0.03341 0.07283,0.06518 0.111104,0.0956 0.0092,0.0073 0.01851,0.01452 0.02791,0.0217 0.04122,0.03153 0.08352,0.06142 0.127124,0.0894 0.0064,0.0041 0.01266,0.0084 0.01912,0.0124 0.04891,0.03057 0.09938,0.05877 0.150895,0.08475 0.0024,0.0012 0.0048,0.0024 0.0072,0.0036 0.218414,0.108982 0.457859,0.175631 0.706933,0.19327 0.01242,9.42e-4 0.02482,0.0024 0.03721,0.0031 0.03326,0.0017 0.06673,0.0011 0.100253,0.001 0.03365,9e-5 0.06739,6.64e-4 0.100769,-0.001 0.01203,-6.77e-4 0.02412,-0.0022 0.03617,-0.0031 0.250071,-0.01759 0.490367,-0.08466 0.709517,-0.194302 0,0 5.17e-4,0 5.17e-4,0 0.05598,-0.02803 0.110378,-0.05856 0.163298,-0.09199 0.0025,-0.0016 0.0047,-0.0036 0.0072,-0.0052 0.04642,-0.02963 0.09167,-0.06094 0.135392,-0.09457 0.007,-0.0054 0.01374,-0.01105 0.02067,-0.01654 0.03998,-0.03165 0.07887,-0.06484 0.116272,-0.09974 0.0079,-0.0073 0.01554,-0.01477 0.02325,-0.02222 0.03649,-0.03524 0.07173,-0.07179 0.10542,-0.110072 0.0061,-0.007 0.01206,-0.01413 0.01809,-0.02118 0.0319,-0.03735 0.0624,-0.07574 0.09147,-0.115755 0.0088,-0.01211 0.01732,-0.02438 0.02584,-0.03669 0.0255,-0.03694 0.04989,-0.07468 0.07286,-0.113689 0.0086,-0.01463 0.01655,-0.02959 0.0248,-0.04444 0.01974,-0.03568 0.03878,-0.07178 0.05633,-0.109037 0.01158,-0.02446 0.02203,-0.04945 0.03256,-0.07441 0.01281,-0.03053 0.02538,-0.06103 0.03669,-0.0925 0.01002,-0.02777 0.01867,-0.05597 0.02739,-0.08423 0.0071,-0.02293 0.01596,-0.04484 0.02222,-0.06821 L 4.9056615,4.1801875 c 0.03705,-0.138288 0.05674,-0.276854 0.06253,-0.413928 h 1.814876 c 0.197702,0 0.388044,-0.03049 0.56689,-0.0863 0.178978,0.0559 0.369021,0.0863 0.566891,0.0863 H 10.260379 V 27.359199 H 7.9168505 c -1.047,0 -1.889807,0.842816 -1.889807,1.889807 0,1.046999 0.842807,1.889805 1.889807,1.889805 h 8.4666665 c 0.197872,0 0.38843,-0.0304 0.567407,-0.0863 0.178848,0.05581 0.369187,0.0863 0.566891,0.0863 h 8.466667 c 1.046991,0 1.889808,-0.842806 1.889808,-1.889805 0,-1.04699 -0.842817,-1.889807 -1.889808,-1.889807 H 23.641019 V 3.7663215 h 2.343525 c 1.046991,0 1.889808,-0.842807 1.889808,-1.889807 0,-1.04699 -0.842817,-1.890324 -1.889808,-1.890324 h -8.466667 c -0.197702,0 -0.388043,0.03049 -0.566891,0.0863 -0.178977,-0.0559 -0.369538,-0.0863 -0.567407,-0.0863 H 12.206573 12.094437 7.9169125 c -0.19787,0 -0.387913,0.0304 -0.5668909,0.0863 -0.178846,-0.05581 -0.3691881,-0.0863 -0.5668901,-0.0863 H 0.96229755 c -1.046995,0 -1.889807,0.843324 -1.889807,1.890324 0,1.04699 0.842813,1.889807 1.889807,1.889807 H 1.1033746 L -3.7686795,21.950226 -8.6407345,3.7663215 h 0.141077 c 1.046994,0 1.889807,-0.842817 1.889807,-1.889807 0,-1.047 -0.842813,-1.890324 -1.889807,-1.890324 z m 31.271477,3.693831 c 0.178848,0.05581 0.369189,0.0863 0.566891,0.0863 h 2.343526 V 27.359199 h -2.343526 c -0.197704,0 -0.388043,0.03049 -0.566891,0.0863 -0.178977,-0.0559 -0.369535,-0.0863 -0.567407,-0.0863 h -2.34301 V 3.7663215 h 2.34301 c 0.197869,0 0.38843,-0.0304 0.567407,-0.0863 z"
     id="rect4485-4-64-6-5"
     inkscape:connector-curvature="0" />
</svg>
