<?xml version="1.0" encoding="UTF-8" standalone="no"?>
<svg
   xmlns:dc="http://purl.org/dc/elements/1.1/"
   xmlns:cc="http://creativecommons.org/ns#"
   xmlns:rdf="http://www.w3.org/1999/02/22-rdf-syntax-ns#"
   xmlns:svg="http://www.w3.org/2000/svg"
   xmlns="http://www.w3.org/2000/svg"
   xmlns:sodipodi="http://sodipodi.sourceforge.net/DTD/sodipodi-0.dtd"
   xmlns:inkscape="http://www.inkscape.org/namespaces/inkscape"
   id="svg8"
   version="1.1"
   viewBox="0 0 14.204161 31.125002"
   height="117.63779"
   width="202.90401"
   sodipodi:docname="8.svg"
   inkscape:version="0.92.1 unknown">
  <sodipodi:namedview
     pagecolor="#ffffff"
     bordercolor="#666666"
     borderopacity="1"
     objecttolerance="10"
     gridtolerance="10"
     guidetolerance="10"
     inkscape:pageopacity="0"
     inkscape:pageshadow="2"
     inkscape:window-width="1816"
     inkscape:window-height="1164"
     id="namedview18"
     showgrid="false"
     inkscape:zoom="2.8371358"
     inkscape:cx="92.44393"
     inkscape:cy="44.720173"
     inkscape:window-x="104"
     inkscape:window-y="36"
     inkscape:window-maximized="1"
     inkscape:current-layer="svg8"
     units="px" />
  <defs
     id="defs2" />
  <metadata
     id="metadata5">
    <rdf:RDF>
      <cc:Work
         rdf:about="">
        <dc:format>image/svg+xml</dc:format>
        <dc:type
           rdf:resource="http://purl.org/dc/dcmitype/StillImage" />
        <dc:title></dc:title>
      </cc:Work>
    </rdf:RDF>
  </metadata>
  <path
     style="opacity:1;vector-effect:none;fill:#000000;fill-opacity:1;stroke:none;stroke-width:1.00157464;stroke-linecap:round;stroke-linejoin:round;stroke-miterlimit:4;stroke-dasharray:none;stroke-dashoffset:15;stroke-opacity:1"
     d="M 7.1425781 -0.052734375 C 3.1854319 -0.052734375 0 3.1346318 0 7.0917969 C 0 11.048924 3.1854357 14.234375 7.1425781 14.234375 L 14.001953 14.234375 C 14.023825 14.752449 14.098234 15.276163 14.238281 15.798828 L 40.121094 112.39258 C 40.143168 112.47496 40.174501 112.55191 40.199219 112.63281 C 40.234113 112.74692 40.268107 112.86068 40.308594 112.97266 C 40.350932 113.09027 40.39743 113.20424 40.445312 113.31836 C 40.485088 113.4127 40.524607 113.50715 40.568359 113.59961 C 40.634676 113.74043 40.706654 113.87686 40.78125 114.01172 C 40.812433 114.06787 40.842316 114.1244 40.875 114.17969 C 40.961841 114.32713 41.054 114.46976 41.150391 114.60938 C 41.182585 114.65589 41.214741 114.70229 41.248047 114.74805 C 41.354495 114.8946 41.467468 115.0348 41.583984 115.17188 C 41.614499 115.20775 41.644536 115.24401 41.675781 115.2793 C 41.795544 115.41464 41.919745 115.54467 42.048828 115.66992 C 42.08422 115.70426 42.120103 115.73785 42.15625 115.77148 C 42.291928 115.89776 42.431527 116.01783 42.576172 116.13281 C 42.611111 116.16057 42.646123 116.1877 42.681641 116.21484 C 42.83742 116.33399 42.99731 116.44696 43.162109 116.55273 C 43.186306 116.56823 43.209956 116.58439 43.234375 116.59961 C 43.41924 116.71515 43.610001 116.82174 43.804688 116.91992 C 43.813822 116.92451 43.822871 116.92904 43.832031 116.93359 C 44.656968 117.34521 45.561264 117.59718 46.501953 117.66406 C 46.549454 117.66768 46.597118 117.67312 46.644531 117.67578 C 46.770232 117.68217 46.896725 117.68001 47.023438 117.67969 C 47.15015 117.68001 47.276643 117.68217 47.402344 117.67578 C 47.449757 117.67312 47.497421 117.66768 47.544922 117.66406 C 48.730247 117.57979 49.859883 117.20233 50.841797 116.58203 C 50.85134 116.57602 50.859632 116.56855 50.869141 116.5625 C 51.044588 116.45051 51.215605 116.33217 51.380859 116.20508 C 51.407394 116.18469 51.432774 116.16331 51.458984 116.14258 C 51.607694 116.02486 51.751353 115.90111 51.890625 115.77148 C 51.926772 115.73785 51.962655 115.70426 51.998047 115.66992 C 52.12713 115.54467 52.251331 115.41464 52.371094 115.2793 C 52.402339 115.24401 52.432376 115.20775 52.462891 115.17188 C 52.579407 115.0348 52.69238 114.8946 52.798828 114.74805 C 52.832134 114.70229 52.86429 114.65589 52.896484 114.60938 C 52.992875 114.46976 53.085034 114.32713 53.171875 114.17969 C 53.204559 114.1244 53.234442 114.06787 53.265625 114.01172 C 53.340221 113.87686 53.412199 113.74043 53.478516 113.59961 C 53.522268 113.50715 53.561787 113.4127 53.601562 113.31836 C 53.649445 113.20424 53.695943 113.09027 53.738281 112.97266 C 53.778768 112.86068 53.812762 112.74692 53.847656 112.63281 C 53.872374 112.55191 53.903707 112.47496 53.925781 112.39258 L 79.808594 15.798828 C 79.948641 15.276163 80.02305 14.752449 80.044922 14.234375 L 86.904297 14.234375 C 87.651518 14.234375 88.370922 14.119129 89.046875 13.908203 C 89.722828 14.119127 90.442232 14.234375 91.189453 14.234375 L 100.04688 14.234375 L 100.04688 103.4043 L 91.189453 103.4043 C 87.232288 103.4043 84.046875 106.58975 84.046875 110.54688 C 84.046875 114.50404 87.232288 117.68945 91.189453 117.68945 L 106.97656 117.68945 L 107.40234 117.68945 L 123.18945 117.68945 C 123.93668 117.68945 124.65608 117.57421 125.33203 117.36328 C 126.00849 117.57455 126.7287 117.68945 127.47656 117.68945 L 159.47656 117.68945 C 160.22442 117.68945 160.94269 117.57455 161.61914 117.36328 C 162.2951 117.57421 163.01449 117.68945 163.76172 117.68945 L 195.76172 117.68945 C 199.71885 117.68945 202.9043 114.50404 202.9043 110.54688 C 202.9043 106.58975 199.71885 103.4043 195.76172 103.4043 L 186.9043 103.4043 L 186.9043 14.234375 L 195.76172 14.234375 C 199.71885 14.234375 202.9043 11.048962 202.9043 7.0917969 C 202.9043 3.1346696 199.71885 -0.052734375 195.76172 -0.052734375 L 163.76172 -0.052734375 C 163.0145 -0.052734375 162.29509 0.06251147 161.61914 0.2734375 C 160.94269 0.062167428 160.22441 -0.052734375 159.47656 -0.052734375 L 127.47656 -0.052734375 C 126.72871 -0.052734375 126.00848 0.062167428 125.33203 0.2734375 C 124.65608 0.06251147 123.93667 -0.052734375 123.18945 -0.052734375 L 107.40234 -0.052734375 L 106.97656 -0.052734375 L 91.189453 -0.052734375 C 90.442232 -0.052734375 89.722828 0.06251147 89.046875 0.2734375 C 88.370922 0.062513402 87.651518 -0.052734375 86.904297 -0.052734375 L 64.904297 -0.052734375 C 60.947151 -0.052734375 57.761719 3.1346318 57.761719 7.0917969 C 57.761719 11.048924 60.947154 14.234375 64.904297 14.234375 L 65.4375 14.234375 L 47.023438 82.957031 L 28.609375 14.234375 L 29.142578 14.234375 C 33.099721 14.234375 36.285156 11.048924 36.285156 7.0917969 C 36.285156 3.1346318 33.099721 -0.052734375 29.142578 -0.052734375 L 7.1425781 -0.052734375 z M 125.33203 13.908203 C 126.00848 14.119471 126.72871 14.234375 127.47656 14.234375 L 136.33203 14.234375 L 136.33203 103.4043 L 127.47656 103.4043 C 126.7287 103.4043 126.00849 103.5192 125.33203 103.73047 C 124.65608 103.51954 123.93668 103.4043 123.18945 103.4043 L 114.33203 103.4043 L 114.33203 14.234375 L 123.18945 14.234375 C 123.93667 14.234375 124.65608 14.119127 125.33203 13.908203 z M 161.61914 13.908203 C 162.29509 14.119127 163.0145 14.234375 163.76172 14.234375 L 172.61914 14.234375 L 172.61914 103.4043 L 163.76172 103.4043 C 163.01449 103.4043 162.2951 103.51954 161.61914 103.73047 C 160.94269 103.5192 160.22442 103.4043 159.47656 103.4043 L 150.61914 103.4043 L 150.61914 14.234375 L 159.47656 14.234375 C 160.22441 14.234375 160.94269 14.119471 161.61914 13.908203 z "
     transform="matrix(0.26458335,0,0,0.26458335,-19.740431,0)"
     id="rect4485-4-64-6-54" />
</svg>
