<?xml version="1.0" encoding="UTF-8" standalone="no"?>
<svg
   xmlns:dc="http://purl.org/dc/elements/1.1/"
   xmlns:cc="http://creativecommons.org/ns#"
   xmlns:rdf="http://www.w3.org/1999/02/22-rdf-syntax-ns#"
   xmlns:svg="http://www.w3.org/2000/svg"
   xmlns="http://www.w3.org/2000/svg"
   xmlns:sodipodi="http://sodipodi.sourceforge.net/DTD/sodipodi-0.dtd"
   xmlns:inkscape="http://www.inkscape.org/namespaces/inkscape"
   id="svg8"
   version="1.1"
   viewBox="0 0 9.4038924 31.125002"
   height="117.63779"
   width="134.33299"
   sodipodi:docname="9.svg"
   inkscape:version="0.92.1 unknown">
  <sodipodi:namedview
     pagecolor="#ffffff"
     bordercolor="#666666"
     borderopacity="1"
     objecttolerance="10"
     gridtolerance="10"
     guidetolerance="10"
     inkscape:pageopacity="0"
     inkscape:pageshadow="2"
     inkscape:window-width="1816"
     inkscape:window-height="1164"
     id="namedview18"
     showgrid="false"
     inkscape:zoom="2.8371358"
     inkscape:cx="92.44393"
     inkscape:cy="44.720173"
     inkscape:window-x="104"
     inkscape:window-y="36"
     inkscape:window-maximized="1"
     inkscape:current-layer="svg8"
     units="px" />
  <defs
     id="defs2" />
  <metadata
     id="metadata5">
    <rdf:RDF>
      <cc:Work
         rdf:about="">
        <dc:format>image/svg+xml</dc:format>
        <dc:type
           rdf:resource="http://purl.org/dc/dcmitype/StillImage" />
        <dc:title></dc:title>
      </cc:Work>
    </rdf:RDF>
  </metadata>
  <path
     style="opacity:1;vector-effect:none;fill:#000000;fill-opacity:1;stroke:none;stroke-width:0.98655522;stroke-linecap:round;stroke-linejoin:round;stroke-miterlimit:4;stroke-dasharray:none;stroke-dashoffset:15;stroke-opacity:1"
     d="M 7.1425781 -0.052734375 C 3.1854357 -0.052734375 0 3.1346696 0 7.0917969 C 0 11.048962 3.1854357 14.234375 7.1425781 14.234375 L 16 14.234375 L 16 103.4043 L 7.1425781 103.4043 C 3.1854131 103.4043 0 106.58975 0 110.54688 C 0 114.50404 3.1854131 117.68945 7.1425781 117.68945 L 22.929688 117.68945 L 23.355469 117.68945 L 39.142578 117.68945 C 39.890451 117.68945 40.610642 117.57456 41.287109 117.36328 C 41.963052 117.5742 42.680528 117.68945 43.427734 117.68945 L 65.427734 117.68945 C 69.384884 117.68945 72.572266 114.50404 72.572266 110.54688 C 72.572266 107.2789 70.39577 104.54145 67.410156 103.68555 L 85.310547 72.679688 L 103.21094 103.68359 C 100.22322 104.53816 98.046875 107.27741 98.046875 110.54688 C 98.046875 114.50404 101.23231 117.68945 105.18945 117.68945 L 127.18945 117.68945 C 131.1466 117.68945 134.33203 114.50404 134.33203 110.54688 C 134.33203 106.58975 131.1466 103.40234 127.18945 103.40234 L 119.43359 103.40234 C 119.30347 103.06328 119.15243 102.72726 118.96484 102.40234 L 93.556641 58.394531 L 118.96484 14.386719 C 118.99373 14.33668 119.01546 14.284809 119.04297 14.234375 L 119.95312 14.234375 C 123.91028 14.234375 127.0957 11.048962 127.0957 7.0917969 C 127.0957 3.1346696 123.91027 -0.05078125 119.95312 -0.05078125 L 103.95312 -0.05078125 C 99.995986 -0.05078125 96.808594 3.1346696 96.808594 7.0917969 C 96.808594 10.596406 99.310506 13.490064 102.63086 14.107422 L 85.308594 44.109375 L 67.988281 14.107422 C 71.308644 13.490064 73.808594 10.596406 73.808594 7.0917969 C 73.808594 3.1346696 70.623162 -0.05078125 66.666016 -0.05078125 L 50.666016 -0.05078125 C 48.291507 -0.05078125 46.20164 1.1005307 44.904297 2.8730469 C 43.606952 1.1005307 41.51708 -0.052734375 39.142578 -0.052734375 L 23.355469 -0.052734375 L 22.929688 -0.052734375 L 7.1425781 -0.052734375 z M 44.904297 11.310547 C 46.201683 13.082629 48.291845 14.234375 50.666016 14.234375 L 51.574219 14.234375 C 51.601729 14.284809 51.623454 14.33668 51.652344 14.386719 L 77.060547 58.394531 L 51.652344 102.40234 C 51.46481 102.72716 51.315646 103.06339 51.185547 103.40234 L 43.427734 103.40234 C 42.679232 103.40234 41.960165 103.51689 41.283203 103.72852 C 40.607946 103.51807 39.888914 103.4043 39.142578 103.4043 L 30.285156 103.4043 L 30.285156 14.234375 L 39.142578 14.234375 C 41.516742 14.234375 43.606909 13.082629 44.904297 11.310547 z "
     transform="matrix(0.26458335,0,0,0.26458335,-13.069191,0)"
     id="rect4485-6-1-4-9-4-3-3-2" />
</svg>
