<?xml version="1.0" encoding="UTF-8" standalone="no"?>
<svg
   xmlns:dc="http://purl.org/dc/elements/1.1/"
   xmlns:cc="http://creativecommons.org/ns#"
   xmlns:rdf="http://www.w3.org/1999/02/22-rdf-syntax-ns#"
   xmlns:svg="http://www.w3.org/2000/svg"
   xmlns="http://www.w3.org/2000/svg"
   xmlns:sodipodi="http://sodipodi.sourceforge.net/DTD/sodipodi-0.dtd"
   xmlns:inkscape="http://www.inkscape.org/namespaces/inkscape"
   id="svg8"
   version="1.1"
   viewBox="0 0 6.5836268 31.125"
   height="31.125mm"
   width="24.882999mm"
   sodipodi:docname="C.svg"
   inkscape:version="0.92.1 unknown">
  <sodipodi:namedview
     pagecolor="#ffffff"
     bordercolor="#666666"
     borderopacity="1"
     objecttolerance="10"
     gridtolerance="10"
     guidetolerance="10"
     inkscape:pageopacity="0"
     inkscape:pageshadow="2"
     inkscape:window-width="1816"
     inkscape:window-height="1164"
     id="namedview10"
     showgrid="false"
     inkscape:zoom="2.006158"
     inkscape:cx="47.022991"
     inkscape:cy="58.818898"
     inkscape:window-x="104"
     inkscape:window-y="36"
     inkscape:window-maximized="1"
     inkscape:current-layer="svg8" />
  <defs
     id="defs2" />
  <metadata
     id="metadata5">
    <rdf:RDF>
      <cc:Work
         rdf:about="">
        <dc:format>image/svg+xml</dc:format>
        <dc:type
           rdf:resource="http://purl.org/dc/dcmitype/StillImage" />
        <dc:title></dc:title>
      </cc:Work>
    </rdf:RDF>
  </metadata>
  <path
     style="color:#000000;font-style:normal;font-variant:normal;font-weight:normal;font-stretch:normal;font-size:medium;line-height:normal;font-family:sans-serif;font-variant-ligatures:normal;font-variant-position:normal;font-variant-caps:normal;font-variant-numeric:normal;font-variant-alternates:normal;font-feature-settings:normal;text-indent:0;text-align:start;text-decoration:none;text-decoration-line:none;text-decoration-style:solid;text-decoration-color:#000000;letter-spacing:normal;word-spacing:normal;text-transform:none;writing-mode:lr-tb;direction:ltr;text-orientation:mixed;dominant-baseline:auto;baseline-shift:baseline;text-anchor:start;white-space:normal;shape-padding:0;clip-rule:nonzero;display:inline;overflow:visible;visibility:visible;opacity:1;isolation:auto;mix-blend-mode:normal;color-interpolation:sRGB;color-interpolation-filters:linearRGB;solid-color:#000000;solid-opacity:1;vector-effect:none;fill:#000000;fill-opacity:1;fill-rule:evenodd;stroke:none;stroke-width:14.28661442;stroke-linecap:round;stroke-linejoin:miter;stroke-miterlimit:4;stroke-dasharray:none;stroke-dashoffset:0;stroke-opacity:1;color-rendering:auto;image-rendering:auto;shape-rendering:auto;text-rendering:auto;enable-background:accumulate"
     d="M 72.900391 0.1015625 C 68.943188 0.1015625 65.757812 3.2870131 65.757812 7.2441406 L 65.757812 7.8339844 C 61.047627 6.9793866 56.243824 6.7416984 51.486328 7.109375 C 43.897676 7.6958537 36.422901 9.8215284 29.642578 13.449219 C 16.081925 20.704639 5.9832765 33.57973 2.1601562 48.476562 C -1.6629613 63.373427 0.98810001 79.525057 9.3789062 92.414062 C 17.769711 105.30311 31.467057 114.26441 46.636719 116.79688 C 62.291362 119.41028 78.669317 115.02421 90.919922 104.93359 A 7.1450034 7.1450034 0 1 0 81.832031 93.904297 C 72.899594 101.26179 60.404718 104.61063 48.990234 102.70508 C 37.918727 100.85677 27.477495 94.026131 21.353516 84.619141 C 15.229538 75.21218 13.211668 62.899752 16.001953 52.027344 C 18.792235 41.154977 26.493451 31.346114 36.390625 26.050781 C 45.200251 21.337349 56.01574 20.065924 65.757812 22.458984 L 65.757812 29.244141 C 65.757812 33.201268 68.943225 36.386719 72.900391 36.386719 C 76.857518 36.386719 80.044922 33.201268 80.044922 29.244141 L 80.044922 7.2441406 C 80.044922 3.2870131 76.857518 0.1015625 72.900391 0.1015625 z "
     transform="matrix(0.26458334,0,0,0.26458334,-9.1496864,0)"
     id="path5047" />
</svg>
