<?xml version="1.0" encoding="UTF-8" standalone="no"?>
<svg
   xmlns:dc="http://purl.org/dc/elements/1.1/"
   xmlns:cc="http://creativecommons.org/ns#"
   xmlns:rdf="http://www.w3.org/1999/02/22-rdf-syntax-ns#"
   xmlns:svg="http://www.w3.org/2000/svg"
   xmlns="http://www.w3.org/2000/svg"
   xmlns:sodipodi="http://sodipodi.sourceforge.net/DTD/sodipodi-0.dtd"
   xmlns:inkscape="http://www.inkscape.org/namespaces/inkscape"
   id="svg8"
   version="1.1"
   viewBox="0 0 6.5836978 31.125002"
   height="117.63779"
   width="94.046997"
   sodipodi:docname="H.svg"
   inkscape:version="0.92.1 unknown">
  <sodipodi:namedview
     pagecolor="#ffffff"
     bordercolor="#666666"
     borderopacity="1"
     objecttolerance="10"
     gridtolerance="10"
     guidetolerance="10"
     inkscape:pageopacity="0"
     inkscape:pageshadow="2"
     inkscape:window-width="1816"
     inkscape:window-height="1164"
     id="namedview10"
     showgrid="false"
     inkscape:zoom="2.8371358"
     inkscape:cx="1.6204183"
     inkscape:cy="36.29158"
     inkscape:window-x="104"
     inkscape:window-y="36"
     inkscape:window-maximized="1"
     inkscape:current-layer="svg8"
     units="px" />
  <defs
     id="defs2">
    <inkscape:path-effect
       effect="spiro"
       id="path-effect5049-5"
       is_visible="true" />
  </defs>
  <metadata
     id="metadata5">
    <rdf:RDF>
      <cc:Work
         rdf:about="">
        <dc:format>image/svg+xml</dc:format>
        <dc:type
           rdf:resource="http://purl.org/dc/dcmitype/StillImage" />
        <dc:title></dc:title>
      </cc:Work>
    </rdf:RDF>
  </metadata>
  <path
     style="opacity:1;vector-effect:none;fill:#000000;fill-opacity:1;stroke:none;stroke-width:0.98655522;stroke-linecap:round;stroke-linejoin:round;stroke-miterlimit:4;stroke-dasharray:none;stroke-dashoffset:15;stroke-opacity:1"
     d="M 12.779297 -0.052734375 C 8.8221583 -0.052734375 5.6367188 3.1346696 5.6367188 7.0917969 C 5.6367188 11.048962 8.8221583 14.234375 12.779297 14.234375 L 15.527344 14.234375 L 15.527344 103.4043 L 7.1425781 103.4043 C 3.1854357 103.4043 0 106.58975 0 110.54688 C 0 114.50404 3.1854357 117.68945 7.1425781 117.68945 L 29.142578 117.68945 C 33.099728 117.68945 36.285156 114.50404 36.285156 110.54688 C 36.285156 106.81595 33.45285 103.77346 29.8125 103.4375 L 29.8125 71.832031 C 30.246664 71.913863 30.693694 71.960938 31.152344 71.960938 L 63.152344 71.960938 C 63.563183 71.960938 63.962009 71.919491 64.353516 71.853516 L 64.353516 103.43164 C 60.656534 103.71193 57.761719 106.77572 57.761719 110.54688 C 57.761719 114.50404 60.947154 117.68945 64.904297 117.68945 L 86.904297 117.68945 C 90.861443 117.68945 94.046875 114.50404 94.046875 110.54688 C 94.046875 106.58975 90.861439 103.4043 86.904297 103.4043 L 78.638672 103.4043 L 78.638672 14.234375 L 81.267578 14.234375 C 85.224724 14.234375 88.412109 11.048962 88.412109 7.0917969 C 88.412109 3.1346696 85.224721 -0.052734375 81.267578 -0.052734375 L 71.708984 -0.052734375 L 71.283203 -0.052734375 L 65.267578 -0.052734375 C 61.310436 -0.052734375 58.125 3.1346696 58.125 7.0917969 C 58.125 10.738285 60.832382 13.722689 64.353516 14.169922 L 64.353516 57.783203 C 63.96204 57.717238 63.563149 57.675781 63.152344 57.675781 L 31.152344 57.675781 C 30.693709 57.675781 30.24665 57.72286 29.8125 57.804688 L 29.8125 14.152344 C 33.275308 13.653494 35.921875 10.69703 35.921875 7.0917969 C 35.921875 3.1346696 32.736443 -0.052734375 28.779297 -0.052734375 L 12.779297 -0.052734375 z "
     transform="matrix(0.26458335,0,0,0.26458335,-9.149786,0)"
     id="rect4485-6-1-4" />
</svg>
