<?xml version="1.0" encoding="UTF-8" standalone="no"?>
<svg
   xmlns:dc="http://purl.org/dc/elements/1.1/"
   xmlns:cc="http://creativecommons.org/ns#"
   xmlns:rdf="http://www.w3.org/1999/02/22-rdf-syntax-ns#"
   xmlns:svg="http://www.w3.org/2000/svg"
   xmlns="http://www.w3.org/2000/svg"
   xmlns:sodipodi="http://sodipodi.sourceforge.net/DTD/sodipodi-0.dtd"
   xmlns:inkscape="http://www.inkscape.org/namespaces/inkscape"
   id="svg8"
   version="1.1"
   viewBox="0 0 6.5836978 31.125002"
   height="117.63779"
   width="94.046997"
   sodipodi:docname="J.svg"
   inkscape:version="0.92.1 unknown">
  <sodipodi:namedview
     pagecolor="#ffffff"
     bordercolor="#666666"
     borderopacity="1"
     objecttolerance="10"
     gridtolerance="10"
     guidetolerance="10"
     inkscape:pageopacity="0"
     inkscape:pageshadow="2"
     inkscape:window-width="1816"
     inkscape:window-height="1164"
     id="namedview10"
     showgrid="false"
     inkscape:zoom="2.8371358"
     inkscape:cx="1.6204183"
     inkscape:cy="36.29158"
     inkscape:window-x="104"
     inkscape:window-y="36"
     inkscape:window-maximized="1"
     inkscape:current-layer="svg8"
     units="px" />
  <defs
     id="defs2">
    <inkscape:path-effect
       effect="spiro"
       id="path-effect5049-5"
       is_visible="true" />
  </defs>
  <metadata
     id="metadata5">
    <rdf:RDF>
      <cc:Work
         rdf:about="">
        <dc:format>image/svg+xml</dc:format>
        <dc:type
           rdf:resource="http://purl.org/dc/dcmitype/StillImage" />
        <dc:title></dc:title>
      </cc:Work>
    </rdf:RDF>
  </metadata>
  <path
     style="opacity:1;vector-effect:none;fill:#000000;fill-opacity:1;stroke:none;stroke-width:0.98655522;stroke-linecap:round;stroke-linejoin:round;stroke-miterlimit:4;stroke-dasharray:none;stroke-dashoffset:15;stroke-opacity:1"
     d="M 42.523438 -0.05078125 C 38.56631 -0.05078125 35.380859 3.1346318 35.380859 7.0917969 C 35.380859 11.048924 38.56631 14.234375 42.523438 14.234375 L 64.630859 14.234375 C 64.535114 14.695027 64.482422 15.170312 64.482422 15.660156 L 64.482422 81.541016 C 64.505704 81.741822 64.483375 81.932542 64.484375 82.119141 C 64.360176 86.464652 62.857848 90.880179 60.298828 94.394531 C 57.587358 98.118201 53.539451 101.02511 49.144531 102.4043 C 44.749632 103.7836 39.766912 103.71171 35.414062 102.20508 C 31.061203 100.69833 27.097853 97.672274 24.496094 93.871094 C 21.894364 90.069985 20.508808 85.282846 20.679688 80.679688 C 20.885717 76.658868 17.730168 73.262077 13.705078 73.171875 C 9.7632583 73.084266 6.4957467 76.206708 6.4042969 80.148438 C 6.1171662 87.883085 8.3352713 95.552313 12.707031 101.93945 C 17.078781 108.32654 23.427988 113.16739 30.742188 115.69922 C 38.056397 118.23109 46.03302 118.3489 53.417969 116.03125 C 60.802898 113.71376 67.28765 109.05962 71.84375 102.80273 C 76.135799 96.908365 78.559251 89.813873 78.767578 82.525391 L 78.767578 81.541016 L 78.767578 15.660156 C 78.767578 15.170312 78.714887 14.695027 78.619141 14.234375 L 80.523438 14.234375 C 84.48058 14.234375 87.667969 11.048924 87.667969 7.0917969 C 87.667969 3.1346318 84.48058 -0.05078125 80.523438 -0.05078125 L 42.523438 -0.05078125 z "
     transform="matrix(0.26458335,0,0,0.26458335,-9.149786,0)"
     id="rect4485-6-1-4-9-6-3" />
</svg>
