<?xml version="1.0" encoding="UTF-8" standalone="no"?>
<svg
   xmlns:dc="http://purl.org/dc/elements/1.1/"
   xmlns:cc="http://creativecommons.org/ns#"
   xmlns:rdf="http://www.w3.org/1999/02/22-rdf-syntax-ns#"
   xmlns:svg="http://www.w3.org/2000/svg"
   xmlns="http://www.w3.org/2000/svg"
   xmlns:sodipodi="http://sodipodi.sourceforge.net/DTD/sodipodi-0.dtd"
   xmlns:inkscape="http://www.inkscape.org/namespaces/inkscape"
   id="svg8"
   version="1.1"
   viewBox="0 0 7.6731808 33.412381"
   height="126.283"
   width="109.61008"
   sodipodi:docname="L.svg"
   inkscape:version="0.92.1 unknown">
  <sodipodi:namedview
     pagecolor="#ffffff"
     bordercolor="#666666"
     borderopacity="1"
     objecttolerance="10"
     gridtolerance="10"
     guidetolerance="10"
     inkscape:pageopacity="0"
     inkscape:pageshadow="2"
     inkscape:window-width="1816"
     inkscape:window-height="1164"
     id="namedview10"
     showgrid="false"
     inkscape:zoom="2.8371358"
     inkscape:cx="-17.419245"
     inkscape:cy="50.390306"
     inkscape:window-x="104"
     inkscape:window-y="36"
     inkscape:window-maximized="1"
     inkscape:current-layer="svg8"
     units="px" />
  <defs
     id="defs2">
    <inkscape:path-effect
       effect="spiro"
       id="path-effect5049-5"
       is_visible="true" />
  </defs>
  <metadata
     id="metadata5">
    <rdf:RDF>
      <cc:Work
         rdf:about="">
        <dc:format>image/svg+xml</dc:format>
        <dc:type
           rdf:resource="http://purl.org/dc/dcmitype/StillImage" />
        <dc:title></dc:title>
      </cc:Work>
    </rdf:RDF>
  </metadata>
  <path
     style="opacity:1;vector-effect:none;fill:#000000;fill-opacity:1;stroke:none;stroke-width:1.00157464;stroke-linecap:round;stroke-linejoin:round;stroke-miterlimit:4;stroke-dasharray:none;stroke-dashoffset:15;stroke-opacity:1"
     d="M 18.603516 0 C 14.646374 1.7763568e-15 11.460938 3.1854511 11.460938 7.1425781 C 11.460937 11.099743 14.646374 14.285156 18.603516 14.285156 L 27.460938 14.285156 L 27.460938 103.45508 L 15.603516 103.45508 C 11.646374 103.45508 8.4609375 106.64248 8.4609375 110.59961 C 8.4609375 114.55677 11.646374 117.74219 15.603516 117.74219 L 34.390625 117.74219 L 34.816406 117.74219 L 86.863281 117.74219 L 86.863281 119.14062 C 86.863281 123.09775 90.050648 126.2832 94.007812 126.2832 C 97.96494 126.2832 101.15039 123.09775 101.15039 119.14062 L 101.15039 97.140625 C 101.15039 93.183498 97.96494 89.998047 94.007812 89.998047 C 90.05061 89.998047 86.863281 93.183498 86.863281 97.140625 L 86.863281 103.45508 L 41.746094 103.45508 L 41.746094 14.285156 L 50.603516 14.285156 C 54.560643 14.285156 57.746094 11.099743 57.746094 7.1425781 C 57.746094 3.1854511 54.560643 0 50.603516 0 L 34.816406 0 L 34.390625 0 L 18.603516 0 z "
     transform="matrix(0.26458337,0,0,0.26458337,-10.663911,0)"
     id="rect4485-6-7-03-4-4-7-8-5-9" />
</svg>
