<?xml version="1.0" encoding="UTF-8" standalone="no"?>
<svg
   xmlns:dc="http://purl.org/dc/elements/1.1/"
   xmlns:cc="http://creativecommons.org/ns#"
   xmlns:rdf="http://www.w3.org/1999/02/22-rdf-syntax-ns#"
   xmlns:svg="http://www.w3.org/2000/svg"
   xmlns="http://www.w3.org/2000/svg"
   xmlns:sodipodi="http://sodipodi.sourceforge.net/DTD/sodipodi-0.dtd"
   xmlns:inkscape="http://www.inkscape.org/namespaces/inkscape"
   id="svg8"
   version="1.1"
   viewBox="0 0 6.5836977 31.15231"
   height="117.741"
   width="94.046997"
   sodipodi:docname="M.svg"
   inkscape:version="0.92.1 unknown">
  <sodipodi:namedview
     pagecolor="#ffffff"
     bordercolor="#666666"
     borderopacity="1"
     objecttolerance="10"
     gridtolerance="10"
     guidetolerance="10"
     inkscape:pageopacity="0"
     inkscape:pageshadow="2"
     inkscape:window-width="1816"
     inkscape:window-height="1164"
     id="namedview10"
     showgrid="false"
     inkscape:zoom="2.8371358"
     inkscape:cx="-17.419245"
     inkscape:cy="50.390306"
     inkscape:window-x="104"
     inkscape:window-y="36"
     inkscape:window-maximized="1"
     inkscape:current-layer="svg8"
     units="px" />
  <defs
     id="defs2">
    <inkscape:path-effect
       effect="spiro"
       id="path-effect5049-5"
       is_visible="true" />
  </defs>
  <metadata
     id="metadata5">
    <rdf:RDF>
      <cc:Work
         rdf:about="">
        <dc:format>image/svg+xml</dc:format>
        <dc:type
           rdf:resource="http://purl.org/dc/dcmitype/StillImage" />
        <dc:title></dc:title>
      </cc:Work>
    </rdf:RDF>
  </metadata>
  <path
     style="opacity:1;vector-effect:none;fill:#000000;fill-opacity:1;stroke:none;stroke-width:0.98655516;stroke-linecap:round;stroke-linejoin:round;stroke-miterlimit:4;stroke-dasharray:none;stroke-dashoffset:15;stroke-opacity:1"
     d="M 12.779297 0 C 8.8221585 -5.9211895e-16 5.6367188 3.1854511 5.6367188 7.1425781 C 5.6367188 11.099743 8.8221585 14.285156 12.779297 14.285156 L 13.992188 14.285156 L 13.992188 103.45508 L 7.1425781 103.45508 C 3.185436 103.45508 0 106.64053 0 110.59766 C 0 114.55482 3.185436 117.74219 7.1425781 117.74219 L 29.142578 117.74219 C 33.099724 117.74219 36.285156 114.55482 36.285156 110.59766 C 36.285156 106.64053 33.09972 103.45508 29.142578 103.45508 L 28.277344 103.45508 L 28.277344 61.386719 L 40.121094 105.58789 C 40.142251 105.66685 40.171725 105.74075 40.195312 105.81836 C 40.231781 105.93832 40.267903 106.05818 40.310547 106.17578 C 40.351395 106.28886 40.397381 106.39796 40.443359 106.50781 C 40.484105 106.60471 40.52342 106.70196 40.568359 106.79688 C 40.631568 106.93101 40.700753 107.06073 40.771484 107.18945 C 40.808261 107.25614 40.843924 107.32319 40.882812 107.38867 C 40.963783 107.52546 41.051408 107.65709 41.140625 107.78711 C 41.180214 107.84466 41.218481 107.90259 41.259766 107.95898 C 41.358636 108.09435 41.462813 108.22432 41.570312 108.35156 C 41.60696 108.3949 41.643932 108.43798 41.681641 108.48047 C 41.799814 108.61372 41.921606 108.74179 42.048828 108.86523 C 42.08422 108.89957 42.120103 108.93316 42.15625 108.9668 C 42.295522 109.09642 42.439181 109.22017 42.587891 109.33789 C 42.614101 109.35862 42.639481 109.38001 42.666016 109.40039 C 42.83127 109.52748 43.002287 109.64582 43.177734 109.75781 C 43.193596 109.76791 43.208653 109.77908 43.224609 109.78906 C 43.412612 109.90699 43.606494 110.01528 43.804688 110.11523 C 43.813819 110.11982 43.822874 110.12436 43.832031 110.12891 C 44.042058 110.2337 44.256736 110.32833 44.476562 110.41211 C 44.477935 110.41263 44.479096 110.41354 44.480469 110.41406 C 44.480469 110.41406 44.482422 110.41406 44.482422 110.41406 C 44.932066 110.58498 45.398333 110.71183 45.878906 110.78906 C 45.884149 110.78993 45.889289 110.79212 45.894531 110.79297 C 46.085199 110.82317 46.278621 110.84282 46.472656 110.85742 C 46.531249 110.86212 46.589977 110.8698 46.648438 110.87305 C 46.772844 110.8793 46.898041 110.87728 47.023438 110.87695 C 47.148834 110.87728 47.274031 110.8793 47.398438 110.87305 C 47.456898 110.8698 47.515626 110.86212 47.574219 110.85742 C 47.76632 110.84296 47.95768 110.82272 48.146484 110.79297 C 48.148417 110.79266 48.150411 110.79328 48.152344 110.79297 C 48.878259 110.67799 49.574683 110.44918 50.222656 110.125 C 50.222656 110.125 50.224609 110.125 50.224609 110.125 C 50.632368 109.92087 51.018878 109.67878 51.380859 109.40039 C 51.407394 109.38001 51.432774 109.35862 51.458984 109.33789 C 51.607694 109.22017 51.751353 109.09642 51.890625 108.9668 C 51.926772 108.93316 51.962655 108.89957 51.998047 108.86523 C 52.12713 108.73998 52.251331 108.60996 52.371094 108.47461 C 52.402339 108.43932 52.432376 108.40306 52.462891 108.36719 C 52.579407 108.23012 52.69238 108.08991 52.798828 107.94336 C 52.833037 107.89636 52.865402 107.84858 52.898438 107.80078 C 52.990986 107.66656 53.080326 107.53013 53.164062 107.38867 C 53.202951 107.32319 53.238614 107.25614 53.275391 107.18945 C 53.346122 107.06073 53.415307 106.93101 53.478516 106.79688 C 53.523455 106.70196 53.56277 106.60471 53.603516 106.50781 C 53.649494 106.39796 53.69548 106.28886 53.736328 106.17578 C 53.778972 106.05818 53.815094 105.93832 53.851562 105.81836 C 53.87515 105.74075 53.904624 105.66685 53.925781 105.58789 L 65.769531 61.386719 L 65.769531 103.45508 L 64.904297 103.45508 C 60.947155 103.45508 57.761719 106.64053 57.761719 110.59766 C 57.761719 114.55482 60.947155 117.74219 64.904297 117.74219 L 86.904297 117.74219 C 90.861443 117.74219 94.046875 114.55482 94.046875 110.59766 C 94.046875 106.64053 90.861439 103.45508 86.904297 103.45508 L 80.054688 103.45508 L 80.054688 14.285156 L 81.267578 14.285156 C 85.224724 14.285156 88.412109 11.099743 88.412109 7.1425781 C 88.412109 3.1854511 85.22472 0 81.267578 0 L 65.267578 0 C 61.310436 -5.9211895e-16 58.125 3.1854511 58.125 7.1425781 C 58.125 10.542355 60.480448 13.365822 63.652344 14.095703 L 47.023438 76.154297 L 30.394531 14.095703 C 33.567367 13.366498 35.921875 10.543017 35.921875 7.1425781 C 35.921875 3.1854511 32.736443 0 28.779297 0 L 12.779297 0 z "
     transform="matrix(0.26458337,0,0,0.26458337,-9.1497869,0)"
     id="rect4485-6-1-4-9-4-3" />
</svg>
