<?xml version="1.0" encoding="UTF-8" standalone="no"?>
<svg
   xmlns:dc="http://purl.org/dc/elements/1.1/"
   xmlns:cc="http://creativecommons.org/ns#"
   xmlns:rdf="http://www.w3.org/1999/02/22-rdf-syntax-ns#"
   xmlns:svg="http://www.w3.org/2000/svg"
   xmlns="http://www.w3.org/2000/svg"
   xmlns:sodipodi="http://sodipodi.sourceforge.net/DTD/sodipodi-0.dtd"
   xmlns:inkscape="http://www.inkscape.org/namespaces/inkscape"
   id="svg8"
   version="1.1"
   viewBox="0 0 6.8787663 31.15231"
   height="117.741"
   width="98.262001"
   sodipodi:docname="N.svg"
   inkscape:version="0.92.1 unknown">
  <sodipodi:namedview
     pagecolor="#ffffff"
     bordercolor="#666666"
     borderopacity="1"
     objecttolerance="10"
     gridtolerance="10"
     guidetolerance="10"
     inkscape:pageopacity="0"
     inkscape:pageshadow="2"
     inkscape:window-width="1816"
     inkscape:window-height="1164"
     id="namedview10"
     showgrid="false"
     inkscape:zoom="2.8371358"
     inkscape:cx="84.267816"
     inkscape:cy="50.390306"
     inkscape:window-x="104"
     inkscape:window-y="36"
     inkscape:window-maximized="1"
     inkscape:current-layer="svg8"
     units="px" />
  <defs
     id="defs2">
    <inkscape:path-effect
       effect="spiro"
       id="path-effect5049-5"
       is_visible="true" />
  </defs>
  <metadata
     id="metadata5">
    <rdf:RDF>
      <cc:Work
         rdf:about="">
        <dc:format>image/svg+xml</dc:format>
        <dc:type
           rdf:resource="http://purl.org/dc/dcmitype/StillImage" />
        <dc:title></dc:title>
      </cc:Work>
    </rdf:RDF>
  </metadata>
  <path
     style="opacity:1;vector-effect:none;fill:#000000;fill-opacity:1;stroke:none;stroke-width:0.26102608;stroke-linecap:round;stroke-linejoin:round;stroke-miterlimit:4;stroke-dasharray:none;stroke-dashoffset:15;stroke-opacity:1"
     d="m -6.1786357,1.015e-4 c -1.046993,0 -1.8898074,0.84281739 -1.8898074,1.8898074 0,1.047 0.8428144,1.8898073 1.8898074,1.8898073 h 0.7270875 V 27.372595 h -2.2184696 c -1.046994,0 -1.8898074,0.842817 -1.8898074,1.889808 0,1.046998 0.8428134,1.889805 1.8898074,1.889805 h 5.8208341 c 1.04699607,0 1.88980734,-0.842807 1.88980734,-1.889805 0,-0.986968 -0.7491096,-1.791899 -1.71204044,-1.881024 V 10.638213 L 8.060807,27.495068 c -0.71539,0.268787 -1.2226643,0.955762 -1.2226643,1.767335 0,1.046998 0.8428134,1.889805 1.8898073,1.889805 h 5.820835 c 1.046994,0 1.889806,-0.842807 1.889806,-1.889805 0,-1.046991 -0.842812,-1.889808 -1.889806,-1.889808 H 12.361838 V 3.7797162 h 0.695565 c 1.046995,0 1.889807,-0.8428073 1.889807,-1.8898073 0,-1.04699001 -0.842813,-1.8898074 -1.889807,-1.8898074 H 8.8240682 c -1.046994,0 -1.8898074,0.84281739 -1.8898074,1.8898074 0,0.964845 0.7162645,1.7544811 1.6479617,1.8727541 V 20.838625 L -1.3272517,3.6748131 c 0.74118926,-0.2552142 1.27175723,-0.9548927 1.27175723,-1.7849042 0,-1.04699001 -0.84281233,-1.8898074 -1.88980733,-1.8898074 z"
     id="rect4485-6-1-4-7-8"
     inkscape:connector-curvature="0" />
</svg>
