<?xml version="1.0" encoding="UTF-8" standalone="no"?>
<svg
   xmlns:dc="http://purl.org/dc/elements/1.1/"
   xmlns:cc="http://creativecommons.org/ns#"
   xmlns:rdf="http://www.w3.org/1999/02/22-rdf-syntax-ns#"
   xmlns:svg="http://www.w3.org/2000/svg"
   xmlns="http://www.w3.org/2000/svg"
   xmlns:sodipodi="http://sodipodi.sourceforge.net/DTD/sodipodi-0.dtd"
   xmlns:inkscape="http://www.inkscape.org/namespaces/inkscape"
   id="svg8"
   version="1.1"
   viewBox="0 0 6.8787663 31.15231"
   height="117.741"
   width="98.262001"
   sodipodi:docname="O.svg"
   inkscape:version="0.92.1 unknown">
  <sodipodi:namedview
     pagecolor="#ffffff"
     bordercolor="#666666"
     borderopacity="1"
     objecttolerance="10"
     gridtolerance="10"
     guidetolerance="10"
     inkscape:pageopacity="0"
     inkscape:pageshadow="2"
     inkscape:window-width="1816"
     inkscape:window-height="1164"
     id="namedview10"
     showgrid="false"
     inkscape:zoom="2.8371358"
     inkscape:cx="84.267816"
     inkscape:cy="50.390306"
     inkscape:window-x="104"
     inkscape:window-y="36"
     inkscape:window-maximized="1"
     inkscape:current-layer="svg8"
     units="px" />
  <defs
     id="defs2">
    <inkscape:path-effect
       effect="spiro"
       id="path-effect5049-5"
       is_visible="true" />
  </defs>
  <metadata
     id="metadata5">
    <rdf:RDF>
      <cc:Work
         rdf:about="">
        <dc:format>image/svg+xml</dc:format>
        <dc:type
           rdf:resource="http://purl.org/dc/dcmitype/StillImage" />
        <dc:title></dc:title>
      </cc:Work>
    </rdf:RDF>
  </metadata>
  <path
     style="color:#000000;font-style:normal;font-variant:normal;font-weight:normal;font-stretch:normal;font-size:medium;line-height:normal;font-family:sans-serif;font-variant-ligatures:normal;font-variant-position:normal;font-variant-caps:normal;font-variant-numeric:normal;font-variant-alternates:normal;font-feature-settings:normal;text-indent:0;text-align:start;text-decoration:none;text-decoration-line:none;text-decoration-style:solid;text-decoration-color:#000000;letter-spacing:normal;word-spacing:normal;text-transform:none;writing-mode:lr-tb;direction:ltr;text-orientation:mixed;dominant-baseline:auto;baseline-shift:baseline;text-anchor:start;white-space:normal;shape-padding:0;clip-rule:nonzero;display:inline;overflow:visible;visibility:visible;opacity:1;isolation:auto;mix-blend-mode:normal;color-interpolation:sRGB;color-interpolation-filters:linearRGB;solid-color:#000000;solid-opacity:1;vector-effect:none;fill:#000000;fill-opacity:1;fill-rule:evenodd;stroke:none;stroke-width:14.28661442;stroke-linecap:round;stroke-linejoin:miter;stroke-miterlimit:4;stroke-dasharray:none;stroke-dashoffset:0;stroke-opacity:1;color-rendering:auto;image-rendering:auto;shape-rendering:auto;text-rendering:auto;enable-background:accumulate"
     d="M 48.304688 1.46875 C 35.842922 1.7611392 24.216815 8.7920447 16.289062 19.769531 C 10.562847 27.698415 6.8420697 37.465649 5.2460938 47.775391 C 4.6325155 51.739124 4.3432195 55.784337 4.3964844 59.845703 C 4.5884579 74.47064 9.1223277 88.769237 17.367188 99.412109 C 25.612028 110.05497 37.497028 116.56378 49.958984 116.27148 C 62.42109 115.97955 74.044955 108.94999 81.972656 97.972656 C 89.900354 86.995322 94.057079 72.52144 93.865234 57.896484 C 93.673261 43.271476 89.141352 28.972922 80.896484 18.330078 C 72.651648 7.6871829 60.766611 1.1765005 48.304688 1.46875 z M 48.636719 15.753906 C 55.859403 15.584523 63.683153 19.444171 69.601562 27.083984 C 75.519944 34.723698 79.428552 46.387775 79.582031 58.080078 C 79.735404 69.772196 76.137864 81.651279 70.390625 89.609375 C 64.643319 97.567558 56.847427 101.8191 49.625 101.98828 C 42.402348 102.15768 34.580517 98.296035 28.662109 90.65625 C 22.743713 83.016492 18.835117 71.352369 18.681641 59.660156 C 18.639057 56.413206 18.873439 53.150563 19.367188 49.960938 C 20.651438 41.664891 23.719894 33.880828 27.871094 28.132812 C 33.618351 20.174639 41.413868 15.923375 48.636719 15.753906 z "
     transform="matrix(0.26458337,0,0,0.26458337,-9.5598626,0)"
     id="path4525-4-3" />
</svg>
