<?xml version="1.0" encoding="UTF-8" standalone="no"?>
<svg
   xmlns:dc="http://purl.org/dc/elements/1.1/"
   xmlns:cc="http://creativecommons.org/ns#"
   xmlns:rdf="http://www.w3.org/1999/02/22-rdf-syntax-ns#"
   xmlns:svg="http://www.w3.org/2000/svg"
   xmlns="http://www.w3.org/2000/svg"
   xmlns:sodipodi="http://sodipodi.sourceforge.net/DTD/sodipodi-0.dtd"
   xmlns:inkscape="http://www.inkscape.org/namespaces/inkscape"
   id="svg8"
   version="1.1"
   viewBox="0 0 6.8787663 31.15231"
   height="117.741"
   width="98.262001"
   sodipodi:docname="P.svg"
   inkscape:version="0.92.1 unknown">
  <sodipodi:namedview
     pagecolor="#ffffff"
     bordercolor="#666666"
     borderopacity="1"
     objecttolerance="10"
     gridtolerance="10"
     guidetolerance="10"
     inkscape:pageopacity="0"
     inkscape:pageshadow="2"
     inkscape:window-width="1816"
     inkscape:window-height="1164"
     id="namedview10"
     showgrid="false"
     inkscape:zoom="2.8371358"
     inkscape:cx="84.267816"
     inkscape:cy="50.390306"
     inkscape:window-x="104"
     inkscape:window-y="36"
     inkscape:window-maximized="1"
     inkscape:current-layer="svg8"
     units="px" />
  <defs
     id="defs2">
    <inkscape:path-effect
       effect="spiro"
       id="path-effect5049-5"
       is_visible="true" />
  </defs>
  <metadata
     id="metadata5">
    <rdf:RDF>
      <cc:Work
         rdf:about="">
        <dc:format>image/svg+xml</dc:format>
        <dc:type
           rdf:resource="http://purl.org/dc/dcmitype/StillImage" />
        <dc:title></dc:title>
      </cc:Work>
    </rdf:RDF>
  </metadata>
  <path
     style="opacity:1;vector-effect:none;fill:#000000;fill-opacity:1;stroke:none;stroke-width:1.00157464;stroke-linecap:round;stroke-linejoin:round;stroke-miterlimit:4;stroke-dasharray:none;stroke-dashoffset:15;stroke-opacity:1"
     d="M 19.265625 0 C 15.308483 -5.9211895e-16 12.123047 3.1854511 12.123047 7.1425781 C 12.123047 11.099743 15.308483 14.287109 19.265625 14.287109 L 23.304688 14.287109 L 23.304688 103.45508 L 18.634766 103.45508 C 14.677624 103.45508 11.492188 106.64053 11.492188 110.59766 C 11.492187 114.55482 14.677624 117.74023 18.634766 117.74023 L 40.634766 117.74023 C 44.591912 117.74023 47.777344 114.55482 47.777344 110.59766 C 47.777344 106.64053 44.591908 103.45508 40.634766 103.45508 L 37.589844 103.45508 L 37.589844 77.486328 C 38.991862 77.852492 40.41017 78.161679 41.851562 78.367188 C 49.301661 79.429427 56.948146 78.324886 63.791016 75.193359 C 70.633965 72.061828 76.467143 66.998356 80.533203 60.666016 C 84.599294 54.333649 86.769531 46.923805 86.769531 39.398438 C 86.769531 31.872979 84.599294 24.455426 80.533203 18.123047 C 76.467143 11.790718 70.633965 6.7350451 63.791016 3.6035156 C 58.658716 1.254676 53.073123 0.046459396 47.458984 0.037109375 C 45.587604 0.034109375 43.714052 0.16414753 41.851562 0.4296875 C 41.333863 0.50349949 40.819983 0.58932661 40.306641 0.68359375 C 39.383744 0.25014699 38.356268 0 37.265625 0 L 19.265625 0 z M 47.423828 14.328125 C 51.005916 14.341297 54.618142 15.117573 57.847656 16.595703 C 62.153786 18.566313 65.949033 21.858801 68.507812 25.84375 C 71.066552 29.82865 72.486328 34.662688 72.486328 39.398438 C 72.486328 44.134105 71.066552 48.958449 68.507812 52.943359 C 65.949033 56.9283 62.153786 60.230564 57.847656 62.201172 C 53.541447 64.171821 48.555467 64.891066 43.867188 64.222656 C 41.721451 63.91672 39.60247 63.306267 37.589844 62.443359 L 37.589844 16.353516 C 39.605168 15.493545 41.721745 14.878161 43.867188 14.572266 C 45.039285 14.405146 46.229799 14.323734 47.423828 14.328125 z "
     transform="matrix(0.26458337,0,0,0.26458337,-9.5598626,0)"
     id="rect4485-6-7-03-4-4-1" />
</svg>
