<?xml version="1.0" encoding="UTF-8" standalone="no"?>
<svg
   xmlns:dc="http://purl.org/dc/elements/1.1/"
   xmlns:cc="http://creativecommons.org/ns#"
   xmlns:rdf="http://www.w3.org/1999/02/22-rdf-syntax-ns#"
   xmlns:svg="http://www.w3.org/2000/svg"
   xmlns="http://www.w3.org/2000/svg"
   xmlns:sodipodi="http://sodipodi.sourceforge.net/DTD/sodipodi-0.dtd"
   xmlns:inkscape="http://www.inkscape.org/namespaces/inkscape"
   id="svg8"
   version="1.1"
   viewBox="0 0 7.4969747 32.849612"
   height="124.156"
   width="107.093"
   sodipodi:docname="S.svg"
   inkscape:version="0.92.1 unknown">
  <sodipodi:namedview
     pagecolor="#ffffff"
     bordercolor="#666666"
     borderopacity="1"
     objecttolerance="10"
     gridtolerance="10"
     guidetolerance="10"
     inkscape:pageopacity="0"
     inkscape:pageshadow="2"
     inkscape:window-width="1816"
     inkscape:window-height="1164"
     id="namedview10"
     showgrid="false"
     inkscape:zoom="2.8371358"
     inkscape:cx="84.267816"
     inkscape:cy="50.390306"
     inkscape:window-x="104"
     inkscape:window-y="36"
     inkscape:window-maximized="1"
     inkscape:current-layer="svg8"
     units="px" />
  <defs
     id="defs2">
    <inkscape:path-effect
       effect="spiro"
       id="path-effect5049-5"
       is_visible="true" />
    <inkscape:path-effect
       effect="spiro"
       id="path-effect6687"
       is_visible="true" />
    <inkscape:path-effect
       effect="spiro"
       id="path-effect6791"
       is_visible="true" />
    <inkscape:path-effect
       effect="spiro"
       id="path-effect6831"
       is_visible="true" />
  </defs>
  <metadata
     id="metadata5">
    <rdf:RDF>
      <cc:Work
         rdf:about="">
        <dc:format>image/svg+xml</dc:format>
        <dc:type
           rdf:resource="http://purl.org/dc/dcmitype/StillImage" />
        <dc:title></dc:title>
      </cc:Work>
    </rdf:RDF>
  </metadata>
  <path
     style="opacity:1;vector-effect:none;fill:#000000;fill-opacity:1;stroke:none;stroke-width:1.00157464;stroke-linecap:round;stroke-linejoin:round;stroke-miterlimit:4;stroke-dasharray:none;stroke-dashoffset:15;stroke-opacity:1"
     d="M 56.734375 1.265625 C 51.968642 1.2032588 47.251085 2.3479561 43.033203 4.6132812 C 38.212766 7.2022252 34.249467 11.14199 31.628906 15.945312 C 29.008345 20.748635 27.845236 26.213381 28.277344 31.667969 C 28.709451 37.122557 30.720294 42.337167 34.064453 46.667969 C 37.408612 50.998778 41.939482 54.260922 47.107422 56.058594 C 49.104189 56.753173 50.906905 57.148339 52.429688 57.498047 C 59.831825 59.197931 66.530529 61.047134 71.416016 64.466797 C 74.90544 66.909263 77.783218 70.360754 79.558594 74.232422 C 81.33397 78.104094 82.074519 82.535488 81.648438 86.773438 C 81.222356 91.011391 79.617984 95.203775 77.107422 98.644531 C 74.596864 102.08529 71.0933 104.89479 67.1875 106.59375 C 63.281699 108.29271 58.828372 108.94872 54.599609 108.43945 C 50.370847 107.93018 46.209126 106.24175 42.818359 103.66406 C 39.427592 101.08638 36.690247 97.52632 35.068359 93.587891 C 33.628308 90.091012 33.02566 86.184981 33.322266 82.400391 L 34.179688 82.400391 C 38.136837 82.400391 41.322266 79.214977 41.322266 75.257812 C 41.322266 71.300685 38.136833 68.115234 34.179688 68.115234 L 18.179688 68.115234 C 14.222545 68.115234 11.037109 71.300685 11.037109 75.257812 C 11.037109 79.214977 14.222545 82.400391 18.179688 82.400391 L 19.023438 82.400391 C 18.737463 88.068819 19.684648 93.760678 21.853516 99.027344 C 24.458654 105.3534 28.727446 110.89088 34.173828 115.03125 C 39.620211 119.17163 46.102138 121.80309 52.894531 122.62109 C 59.686924 123.4391 66.611112 122.42619 72.884766 119.69727 C 79.15842 116.96833 84.613926 112.59309 88.646484 107.06641 C 92.679047 101.53972 95.180849 95.006374 95.865234 88.199219 C 96.549624 81.39206 95.402457 74.494213 92.550781 68.275391 C 89.699105 62.056576 85.214228 56.681007 79.609375 52.757812 C 71.876306 47.344948 63.236699 45.323734 55.626953 43.576172 C 54.072649 43.219226 52.787893 42.914955 51.802734 42.572266 C 49.30692 41.704093 46.988078 40.027073 45.373047 37.935547 C 43.758016 35.844027 42.724308 33.173309 42.515625 30.539062 C 42.306942 27.904817 42.904345 25.106832 44.169922 22.787109 C 45.435499 20.467386 47.466933 18.449527 49.794922 17.199219 C 52.122911 15.948911 54.927729 15.37167 57.560547 15.597656 C 60.193365 15.823642 62.85468 16.869307 64.935547 18.498047 C 67.016414 20.126786 68.675591 22.46338 69.527344 24.964844 C 69.883067 26.009545 70.101382 27.118592 70.197266 28.240234 L 69.103516 28.240234 C 65.146373 28.240234 61.960938 31.425685 61.960938 35.382812 C 61.960938 39.339977 65.146373 42.525391 69.103516 42.525391 L 85.103516 42.525391 C 89.060662 42.525391 92.246094 39.339977 92.246094 35.382812 C 92.246094 31.425685 89.060658 28.240234 85.103516 28.240234 L 84.525391 28.240234 C 84.410931 25.570212 83.92114 22.915483 83.050781 20.359375 C 81.287104 15.179734 78.050924 10.620588 73.742188 7.2480469 C 69.433451 3.8755053 64.230928 1.8331726 58.779297 1.3652344 C 58.097843 1.3067422 57.415194 1.2745345 56.734375 1.265625 z "
     transform="matrix(0.26458337,0,0,0.26458337,-10.419026,0)"
     id="rect4485-6-7-03-4-4-7-74-4-5-2" />
</svg>
