<?xml version="1.0" encoding="UTF-8" standalone="no"?>
<svg
   xmlns:dc="http://purl.org/dc/elements/1.1/"
   xmlns:cc="http://creativecommons.org/ns#"
   xmlns:rdf="http://www.w3.org/1999/02/22-rdf-syntax-ns#"
   xmlns:svg="http://www.w3.org/2000/svg"
   xmlns="http://www.w3.org/2000/svg"
   xmlns:sodipodi="http://sodipodi.sourceforge.net/DTD/sodipodi-0.dtd"
   xmlns:inkscape="http://www.inkscape.org/namespaces/inkscape"
   id="svg8"
   version="1.1"
   viewBox="0 0 7.4969747 32.849612"
   height="124.156"
   width="107.093"
   sodipodi:docname="U.svg"
   inkscape:version="0.92.1 unknown">
  <sodipodi:namedview
     pagecolor="#ffffff"
     bordercolor="#666666"
     borderopacity="1"
     objecttolerance="10"
     gridtolerance="10"
     guidetolerance="10"
     inkscape:pageopacity="0"
     inkscape:pageshadow="2"
     inkscape:window-width="1816"
     inkscape:window-height="1164"
     id="namedview10"
     showgrid="false"
     inkscape:zoom="2.8371358"
     inkscape:cx="84.267816"
     inkscape:cy="50.390306"
     inkscape:window-x="104"
     inkscape:window-y="36"
     inkscape:window-maximized="1"
     inkscape:current-layer="svg8"
     units="px" />
  <defs
     id="defs2">
    <inkscape:path-effect
       effect="spiro"
       id="path-effect5049-5"
       is_visible="true" />
    <inkscape:path-effect
       effect="spiro"
       id="path-effect6687"
       is_visible="true" />
    <inkscape:path-effect
       effect="spiro"
       id="path-effect6791"
       is_visible="true" />
    <inkscape:path-effect
       effect="spiro"
       id="path-effect6831"
       is_visible="true" />
  </defs>
  <metadata
     id="metadata5">
    <rdf:RDF>
      <cc:Work
         rdf:about="">
        <dc:format>image/svg+xml</dc:format>
        <dc:type
           rdf:resource="http://purl.org/dc/dcmitype/StillImage" />
        <dc:title></dc:title>
      </cc:Work>
    </rdf:RDF>
  </metadata>
  <path
     style="opacity:1;vector-effect:none;fill:#000000;fill-opacity:1;stroke:none;stroke-width:0.98655516;stroke-linecap:round;stroke-linejoin:round;stroke-miterlimit:4;stroke-dasharray:none;stroke-dashoffset:15;stroke-opacity:1"
     d="M 13.351562 3.2070312 C 9.3944241 3.2070312 6.2089844 6.3924823 6.2089844 10.349609 C 6.2089844 14.306774 9.3944241 17.492188 13.351562 17.492188 L 13.990234 17.492188 L 13.990234 79.957031 C 13.990234 80.000534 13.995073 80.042624 13.996094 80.085938 C 14.018204 89.314756 17.066126 98.379866 22.697266 105.64062 C 28.792485 113.49974 37.629872 118.85 47.337891 120.44727 C 57.045889 122.04453 67.086043 119.79234 75.263672 114.23242 C 83.441303 108.67259 89.344109 100.11862 91.806641 90.417969 C 92.50165 87.680121 92.914892 84.875216 93.050781 82.054688 C 93.082907 81.782221 93.103516 81.507975 93.103516 81.226562 L 93.103516 17.492188 L 93.742188 17.492188 C 97.699333 17.492187 100.88477 14.306774 100.88477 10.349609 C 100.88477 6.3924823 97.699333 3.2070312 93.742188 3.2070312 L 77.742188 3.2070312 C 73.785045 3.2070312 70.599609 6.3924823 70.599609 10.349609 C 70.599609 14.306774 73.785045 17.492188 77.742188 17.492188 L 78.818359 17.492188 L 78.818359 76.951172 A 7.1440201 7.1440201 0 0 0 78.771484 78.371094 C 78.937784 81.228824 78.660215 84.134175 77.958984 86.896484 C 76.361123 93.190905 72.346231 98.937283 67.232422 102.41406 C 62.118613 105.89093 55.621209 107.33104 49.65625 106.34961 C 43.691301 105.36818 37.866865 101.89082 33.984375 96.884766 C 30.101876 91.878706 27.977526 85.06383 28.316406 78.548828 A 7.1443263 7.1443263 0 0 0 28.275391 77.408203 L 28.275391 17.492188 L 29.351562 17.492188 C 33.308712 17.492188 36.494141 14.306774 36.494141 10.349609 C 36.494141 6.3924823 33.308708 3.2070312 29.351562 3.2070312 L 13.351562 3.2070312 z "
     transform="matrix(0.26458337,0,0,0.26458337,-10.419026,0)"
     id="rect4485-6-18-6-5" />
</svg>
