<?xml version="1.0" encoding="UTF-8" standalone="no"?>
<svg
   xmlns:dc="http://purl.org/dc/elements/1.1/"
   xmlns:cc="http://creativecommons.org/ns#"
   xmlns:rdf="http://www.w3.org/1999/02/22-rdf-syntax-ns#"
   xmlns:svg="http://www.w3.org/2000/svg"
   xmlns="http://www.w3.org/2000/svg"
   xmlns:sodipodi="http://sodipodi.sourceforge.net/DTD/sodipodi-0.dtd"
   xmlns:inkscape="http://www.inkscape.org/namespaces/inkscape"
   id="svg8"
   version="1.1"
   viewBox="0 0 7.4969747 32.849612"
   height="124.156"
   width="107.093"
   sodipodi:docname="V.svg"
   inkscape:version="0.92.1 unknown">
  <sodipodi:namedview
     pagecolor="#ffffff"
     bordercolor="#666666"
     borderopacity="1"
     objecttolerance="10"
     gridtolerance="10"
     guidetolerance="10"
     inkscape:pageopacity="0"
     inkscape:pageshadow="2"
     inkscape:window-width="1816"
     inkscape:window-height="1164"
     id="namedview10"
     showgrid="false"
     inkscape:zoom="2.8371358"
     inkscape:cx="84.267816"
     inkscape:cy="50.390306"
     inkscape:window-x="104"
     inkscape:window-y="36"
     inkscape:window-maximized="1"
     inkscape:current-layer="svg8"
     units="px" />
  <defs
     id="defs2">
    <inkscape:path-effect
       effect="spiro"
       id="path-effect5049-5"
       is_visible="true" />
    <inkscape:path-effect
       effect="spiro"
       id="path-effect6687"
       is_visible="true" />
    <inkscape:path-effect
       effect="spiro"
       id="path-effect6791"
       is_visible="true" />
    <inkscape:path-effect
       effect="spiro"
       id="path-effect6831"
       is_visible="true" />
  </defs>
  <metadata
     id="metadata5">
    <rdf:RDF>
      <cc:Work
         rdf:about="">
        <dc:format>image/svg+xml</dc:format>
        <dc:type
           rdf:resource="http://purl.org/dc/dcmitype/StillImage" />
        <dc:title></dc:title>
      </cc:Work>
    </rdf:RDF>
  </metadata>
  <path
     style="opacity:1;vector-effect:none;fill:#000000;fill-opacity:1;stroke:none;stroke-width:1.00157464;stroke-linecap:round;stroke-linejoin:round;stroke-miterlimit:4;stroke-dasharray:none;stroke-dashoffset:15;stroke-opacity:1"
     d="M 13.666016 3.2070312 C 9.7088697 3.2070313 6.5234375 6.3924445 6.5234375 10.349609 C 6.5234375 14.306736 9.7088734 17.492188 13.666016 17.492188 L 20.525391 17.492188 C 20.547147 18.0109 20.621494 18.535269 20.761719 19.058594 L 46.642578 115.65039 C 46.665278 115.73511 46.697161 115.81528 46.722656 115.89844 C 46.756674 116.00936 46.790773 116.11962 46.830078 116.22852 C 46.8747 116.35268 46.923817 116.47348 46.974609 116.59375 C 47.011108 116.67972 47.048083 116.76521 47.087891 116.84961 C 47.156124 116.99506 47.229588 117.13629 47.306641 117.27539 C 47.337105 117.33016 47.366544 117.38551 47.398438 117.43945 C 47.485279 117.5869 47.577437 117.72953 47.673828 117.86914 C 47.706022 117.91566 47.738179 117.96205 47.771484 118.00781 C 47.881349 118.15907 47.996609 118.30416 48.117188 118.44531 C 48.139697 118.47165 48.162643 118.49742 48.185547 118.52344 C 48.319905 118.67614 48.459333 118.82298 48.605469 118.96289 C 48.620812 118.97757 48.636861 118.9913 48.652344 119.00586 C 48.804436 119.14889 48.961534 119.28535 49.125 119.41406 C 49.144348 119.42928 49.16407 119.44396 49.183594 119.45898 C 49.346389 119.58446 49.514778 119.70169 49.6875 119.8125 C 49.710973 119.82752 49.734131 119.84266 49.757812 119.85742 C 49.94884 119.97685 50.144206 120.08662 50.345703 120.1875 C 50.559956 120.29477 50.779436 120.39119 51.003906 120.47656 C 51.458768 120.64955 51.93152 120.7784 52.417969 120.85547 C 52.620063 120.88749 52.823447 120.90935 53.029297 120.92383 C 53.074857 120.92727 53.120536 120.93299 53.166016 120.93555 C 53.292173 120.94196 53.419698 120.9398 53.546875 120.93945 C 53.673588 120.93978 53.80008 120.94193 53.925781 120.93555 C 53.972616 120.93292 54.019485 120.92739 54.066406 120.92383 C 54.766185 120.87427 55.445389 120.72079 56.087891 120.47656 C 56.089815 120.47583 56.091827 120.47534 56.09375 120.47461 C 56.316948 120.38955 56.534964 120.29422 56.748047 120.1875 C 56.748559 120.18724 56.749488 120.18776 56.75 120.1875 C 56.950617 120.08696 57.145706 119.97635 57.335938 119.85742 C 57.359619 119.84266 57.382777 119.82752 57.40625 119.8125 C 57.578972 119.70169 57.747361 119.58446 57.910156 119.45898 C 57.92968 119.44396 57.949402 119.42928 57.96875 119.41406 C 58.12948 119.28751 58.283852 119.15408 58.433594 119.01367 C 58.456167 118.99252 58.477723 118.97065 58.5 118.94922 C 58.635337 118.81897 58.765433 118.68425 58.890625 118.54297 C 58.926562 118.50245 58.961122 118.46122 58.996094 118.41992 C 59.110304 118.28495 59.219744 118.14607 59.324219 118.00195 C 59.352811 117.96259 59.380432 117.92274 59.408203 117.88281 C 59.507282 117.74006 59.602338 117.59434 59.691406 117.44336 C 59.729126 117.37966 59.765057 117.31484 59.800781 117.25 C 59.86923 117.12522 59.934705 116.999 59.996094 116.86914 C 60.042185 116.77219 60.083288 116.67325 60.125 116.57422 C 60.172289 116.46134 60.219851 116.34871 60.261719 116.23242 C 60.303854 116.1159 60.338923 115.99773 60.375 115.87891 C 60.398322 115.80208 60.428277 115.72855 60.449219 115.65039 L 86.332031 19.058594 C 86.472255 18.53527 86.54465 18.010899 86.566406 17.492188 L 93.427734 17.492188 C 97.384877 17.492188 100.57031 14.306736 100.57031 10.349609 C 100.57031 6.3924445 97.384877 3.2070312 93.427734 3.2070312 L 71.427734 3.2070312 C 67.470588 3.2070313 64.285156 6.3924445 64.285156 10.349609 C 64.285156 14.306736 67.470592 17.492188 71.427734 17.492188 L 71.962891 17.492188 L 53.546875 86.21875 L 35.130859 17.492188 L 35.666016 17.492188 C 39.623158 17.492188 42.808594 14.306736 42.808594 10.349609 C 42.808594 6.3924445 39.623158 3.2070312 35.666016 3.2070312 L 13.666016 3.2070312 z "
     transform="matrix(0.26458337,0,0,0.26458337,-10.419026,0)"
     id="rect4485-4" />
</svg>
