<?xml version="1.0" encoding="UTF-8" standalone="no"?>
<svg
   xmlns:dc="http://purl.org/dc/elements/1.1/"
   xmlns:cc="http://creativecommons.org/ns#"
   xmlns:rdf="http://www.w3.org/1999/02/22-rdf-syntax-ns#"
   xmlns:svg="http://www.w3.org/2000/svg"
   xmlns="http://www.w3.org/2000/svg"
   xmlns:sodipodi="http://sodipodi.sourceforge.net/DTD/sodipodi-0.dtd"
   xmlns:inkscape="http://www.inkscape.org/namespaces/inkscape"
   id="svg8"
   version="1.1"
   viewBox="0 0 8.6539364 32.849612"
   height="124.156"
   width="123.62"
   sodipodi:docname="W.svg"
   inkscape:version="0.92.1 unknown">
  <sodipodi:namedview
     pagecolor="#ffffff"
     bordercolor="#666666"
     borderopacity="1"
     objecttolerance="10"
     gridtolerance="10"
     guidetolerance="10"
     inkscape:pageopacity="0"
     inkscape:pageshadow="2"
     inkscape:window-width="1816"
     inkscape:window-height="1164"
     id="namedview10"
     showgrid="false"
     inkscape:zoom="2.8371358"
     inkscape:cx="84.267816"
     inkscape:cy="50.390306"
     inkscape:window-x="104"
     inkscape:window-y="36"
     inkscape:window-maximized="1"
     inkscape:current-layer="svg8"
     units="px" />
  <defs
     id="defs2">
    <inkscape:path-effect
       effect="spiro"
       id="path-effect5049-5"
       is_visible="true" />
    <inkscape:path-effect
       effect="spiro"
       id="path-effect6687"
       is_visible="true" />
    <inkscape:path-effect
       effect="spiro"
       id="path-effect6791"
       is_visible="true" />
    <inkscape:path-effect
       effect="spiro"
       id="path-effect6831"
       is_visible="true" />
  </defs>
  <metadata
     id="metadata5">
    <rdf:RDF>
      <cc:Work
         rdf:about="">
        <dc:format>image/svg+xml</dc:format>
        <dc:type
           rdf:resource="http://purl.org/dc/dcmitype/StillImage" />
        <dc:title></dc:title>
      </cc:Work>
    </rdf:RDF>
  </metadata>
  <path
     style="opacity:1;vector-effect:none;fill:#000000;fill-opacity:1;stroke:none;stroke-width:1.00157464;stroke-linecap:round;stroke-linejoin:round;stroke-miterlimit:4;stroke-dasharray:none;stroke-dashoffset:15;stroke-opacity:1"
     d="M 7.1425781 3.2070312 C 3.1854322 3.2070313 0 6.3924445 0 10.349609 C 0 14.306736 3.1854359 17.492188 7.1425781 17.492188 L 14.001953 17.492188 C 14.023709 18.0109 14.098057 18.535269 14.238281 19.058594 L 40.121094 115.65039 C 40.142035 115.72855 40.17199 115.80208 40.195312 115.87891 C 40.231389 115.99773 40.266458 116.1159 40.308594 116.23242 C 40.35281 116.35524 40.400915 116.47475 40.451172 116.59375 C 40.487671 116.67972 40.524645 116.76521 40.564453 116.84961 C 40.632687 116.99506 40.70615 117.13629 40.783203 117.27539 C 40.813117 117.32917 40.843708 117.38256 40.875 117.43555 C 40.965326 117.58908 41.061445 117.73778 41.162109 117.88281 C 41.18988 117.92274 41.217502 117.96259 41.246094 118.00195 C 41.350568 118.14607 41.460008 118.28495 41.574219 118.41992 C 41.60919 118.46122 41.643751 118.50245 41.679688 118.54297 C 41.80488 118.68425 41.934975 118.81897 42.070312 118.94922 C 42.092589 118.97065 42.114145 118.99252 42.136719 119.01367 C 42.286461 119.15408 42.440833 119.28751 42.601562 119.41406 C 42.620911 119.42928 42.640632 119.44396 42.660156 119.45898 C 42.822952 119.58446 42.99134 119.70169 43.164062 119.8125 C 43.187535 119.82752 43.210693 119.84266 43.234375 119.85742 C 43.424607 119.97635 43.619696 120.08696 43.820312 120.1875 C 43.82083 120.18776 43.821748 120.18724 43.822266 120.1875 C 44.035349 120.29422 44.253365 120.38955 44.476562 120.47461 C 44.477935 120.47513 44.479096 120.47604 44.480469 120.47656 C 44.481035 120.47678 44.481856 120.47635 44.482422 120.47656 C 44.936937 120.64933 45.408488 120.77847 45.894531 120.85547 C 46.094922 120.88722 46.297866 120.90932 46.501953 120.92383 C 46.549421 120.92744 46.597151 120.93289 46.644531 120.93555 C 46.770232 120.94193 46.896725 120.93978 47.023438 120.93945 C 47.150614 120.9398 47.278139 120.94196 47.404297 120.93555 C 47.449776 120.93299 47.495456 120.92727 47.541016 120.92383 C 47.746866 120.90935 47.950249 120.88749 48.152344 120.85547 C 48.638792 120.7784 49.111544 120.64955 49.566406 120.47656 C 49.790877 120.39119 50.010356 120.29477 50.224609 120.1875 C 50.426106 120.08662 50.621472 119.97685 50.8125 119.85742 C 50.836182 119.84266 50.85934 119.82752 50.882812 119.8125 C 51.055535 119.70169 51.223923 119.58446 51.386719 119.45898 C 51.406243 119.44396 51.425964 119.42928 51.445312 119.41406 C 51.606042 119.28751 51.760414 119.15408 51.910156 119.01367 C 51.93273 118.99252 51.954286 118.97065 51.976562 118.94922 C 52.113766 118.81717 52.246275 118.68049 52.373047 118.53711 C 52.403698 118.50247 52.432943 118.46685 52.462891 118.43164 C 52.579407 118.29457 52.69238 118.15436 52.798828 118.00781 C 52.832134 117.96205 52.86429 117.91566 52.896484 117.86914 C 52.992875 117.72953 53.085034 117.5869 53.171875 117.43945 C 53.203768 117.38551 53.233208 117.33016 53.263672 117.27539 C 53.340725 117.13629 53.414188 116.99506 53.482422 116.84961 C 53.52223 116.76521 53.559204 116.67972 53.595703 116.59375 C 53.64596 116.47475 53.694065 116.35524 53.738281 116.23242 C 53.783462 116.10748 53.823119 115.9811 53.861328 115.85352 C 53.881778 115.78524 53.907207 115.71971 53.925781 115.65039 L 61.808594 86.228516 L 69.693359 115.65039 C 69.714301 115.72855 69.744256 115.80208 69.767578 115.87891 C 69.803221 115.9963 69.837349 116.11337 69.878906 116.22852 C 69.925791 116.35898 69.979511 116.48516 70.033203 116.61133 C 70.066831 116.68994 70.100318 116.76841 70.136719 116.8457 C 70.202644 116.98644 70.27347 117.12301 70.347656 117.25781 C 70.381943 117.31985 70.415056 117.38237 70.451172 117.44336 C 70.54024 117.59434 70.635296 117.74006 70.734375 117.88281 C 70.762146 117.92274 70.789767 117.96259 70.818359 118.00195 C 70.922834 118.14607 71.032274 118.28495 71.146484 118.41992 C 71.181456 118.46122 71.216017 118.50245 71.251953 118.54297 C 71.37393 118.68062 71.501195 118.81227 71.632812 118.93945 C 71.662013 118.96765 71.690991 118.99571 71.720703 119.02344 C 71.863672 119.15695 72.011113 119.28336 72.164062 119.4043 C 72.188827 119.42385 72.213228 119.44364 72.238281 119.46289 C 72.399484 119.5869 72.56541 119.70285 72.736328 119.8125 C 72.759801 119.82752 72.782959 119.84266 72.806641 119.85742 C 72.996873 119.97635 73.193914 120.08696 73.394531 120.1875 C 73.607614 120.29422 73.82563 120.38955 74.048828 120.47461 C 74.0502 120.47513 74.051362 120.47604 74.052734 120.47656 C 74.052734 120.47656 74.054688 120.47656 74.054688 120.47656 C 74.697189 120.72079 75.376393 120.87427 76.076172 120.92383 C 76.123093 120.92739 76.169962 120.93292 76.216797 120.93555 C 76.342498 120.94193 76.46899 120.93978 76.595703 120.93945 C 76.72288 120.9398 76.850405 120.94196 76.976562 120.93555 C 77.022042 120.93299 77.067721 120.92727 77.113281 120.92383 C 78.2891 120.8411 79.408018 120.46807 80.384766 119.85742 C 80.408447 119.84266 80.431605 119.82752 80.455078 119.8125 C 80.6278 119.70169 80.796189 119.58446 80.958984 119.45898 C 80.978823 119.44371 80.997921 119.42757 81.017578 119.41211 C 81.174949 119.28816 81.327767 119.15872 81.474609 119.02148 C 81.502969 118.995 81.5307 118.96832 81.558594 118.94141 C 81.69653 118.80822 81.829691 118.67006 81.957031 118.52539 C 81.980271 118.499 82.002557 118.47203 82.025391 118.44531 C 82.145969 118.30416 82.261229 118.15907 82.371094 118.00781 C 82.405543 117.96048 82.437443 117.91142 82.470703 117.86328 C 82.561111 117.7321 82.648472 117.59903 82.730469 117.46094 C 82.773349 117.38901 82.813188 117.31558 82.853516 117.24219 C 82.924534 117.11237 82.993264 116.981 83.056641 116.8457 C 83.091213 116.77229 83.122224 116.69765 83.154297 116.62305 C 83.212779 116.48632 83.269846 116.34882 83.320312 116.20703 C 83.353939 116.11292 83.382422 116.01749 83.412109 115.92188 C 83.440333 115.83093 83.475128 115.74321 83.5 115.65039 L 109.38086 19.058594 C 109.52108 18.535269 109.59543 18.0109 109.61719 17.492188 L 116.47656 17.492188 C 120.4337 17.492188 123.61914 14.306736 123.61914 10.349609 C 123.61914 6.3924445 120.4337 3.2070312 116.47656 3.2070312 L 94.476562 3.2070312 C 90.519417 3.2070313 87.333984 6.3924445 87.333984 10.349609 C 87.333984 14.306736 90.51942 17.492188 94.476562 17.492188 L 95.011719 17.492188 L 76.595703 86.21875 L 69.205078 58.632812 L 79.808594 19.058594 C 80.832778 15.236288 78.580118 11.334731 74.757812 10.310547 C 70.935507 9.2863631 67.033949 11.539022 66.009766 15.361328 L 61.808594 31.037109 L 57.609375 15.361328 C 56.585191 11.539022 52.683634 9.2863631 48.861328 10.310547 C 45.039022 11.334731 42.786363 15.236288 43.810547 19.058594 L 54.414062 58.632812 L 47.023438 86.214844 L 28.607422 17.492188 L 29.142578 17.492188 C 33.09972 17.492188 36.285156 14.306736 36.285156 10.349609 C 36.285156 6.3924445 33.09972 3.2070312 29.142578 3.2070312 L 7.1425781 3.2070312 z "
     transform="matrix(0.26458337,0,0,0.26458337,-12.02693,0)"
     id="rect4485-4-6" />
</svg>
