<?xml version="1.0" encoding="UTF-8" standalone="no"?>
<svg
   xmlns:dc="http://purl.org/dc/elements/1.1/"
   xmlns:cc="http://creativecommons.org/ns#"
   xmlns:rdf="http://www.w3.org/1999/02/22-rdf-syntax-ns#"
   xmlns:svg="http://www.w3.org/2000/svg"
   xmlns="http://www.w3.org/2000/svg"
   xmlns:sodipodi="http://sodipodi.sourceforge.net/DTD/sodipodi-0.dtd"
   xmlns:inkscape="http://www.inkscape.org/namespaces/inkscape"
   id="svg8"
   version="1.1"
   viewBox="0 0 8.6539364 32.849612"
   height="124.156"
   width="123.62"
   sodipodi:docname="X.svg"
   inkscape:version="0.92.1 unknown">
  <sodipodi:namedview
     pagecolor="#ffffff"
     bordercolor="#666666"
     borderopacity="1"
     objecttolerance="10"
     gridtolerance="10"
     guidetolerance="10"
     inkscape:pageopacity="0"
     inkscape:pageshadow="2"
     inkscape:window-width="1816"
     inkscape:window-height="1164"
     id="namedview10"
     showgrid="false"
     inkscape:zoom="2.8371358"
     inkscape:cx="84.267816"
     inkscape:cy="50.390306"
     inkscape:window-x="104"
     inkscape:window-y="36"
     inkscape:window-maximized="1"
     inkscape:current-layer="svg8"
     units="px" />
  <defs
     id="defs2">
    <inkscape:path-effect
       effect="spiro"
       id="path-effect5049-5"
       is_visible="true" />
    <inkscape:path-effect
       effect="spiro"
       id="path-effect6687"
       is_visible="true" />
    <inkscape:path-effect
       effect="spiro"
       id="path-effect6791"
       is_visible="true" />
    <inkscape:path-effect
       effect="spiro"
       id="path-effect6831"
       is_visible="true" />
  </defs>
  <metadata
     id="metadata5">
    <rdf:RDF>
      <cc:Work
         rdf:about="">
        <dc:format>image/svg+xml</dc:format>
        <dc:type
           rdf:resource="http://purl.org/dc/dcmitype/StillImage" />
        <dc:title></dc:title>
      </cc:Work>
    </rdf:RDF>
  </metadata>
  <path
     style="opacity:1;vector-effect:none;fill:#000000;fill-opacity:1;stroke:none;stroke-width:0.98655516;stroke-linecap:round;stroke-linejoin:round;stroke-miterlimit:4;stroke-dasharray:none;stroke-dashoffset:15;stroke-opacity:1"
     d="M 29.167969 3.2089844 C 25.21083 3.2089844 22.023438 6.3944354 22.023438 10.351562 C 22.023438 14.308727 25.21083 17.494141 29.167969 17.494141 L 32.216797 17.494141 C 32.360365 18.230498 32.620428 18.956642 33.017578 19.644531 L 53.5625 55.228516 L 23.869141 106.66211 L 17.929688 106.66211 C 13.972545 106.66211 10.787109 109.84756 10.787109 113.80469 C 10.787109 117.76185 13.972545 120.94727 17.929688 120.94727 L 39.929688 120.94727 C 43.886837 120.94727 47.072266 117.76185 47.072266 113.80469 C 47.072266 109.99002 44.109689 106.90169 40.351562 106.68359 L 61.810547 69.513672 L 83.269531 106.68359 C 79.511408 106.90169 76.548828 109.99002 76.548828 113.80469 C 76.548828 117.76185 79.734264 120.94727 83.691406 120.94727 L 105.69141 120.94727 C 109.64855 120.94727 112.83398 117.76185 112.83398 113.80469 C 112.83398 109.84756 109.64855 106.66211 105.69141 106.66211 L 99.751953 106.66211 L 70.056641 55.228516 L 90.601562 19.644531 C 90.998717 18.956642 91.258775 18.230498 91.402344 17.494141 L 94.453125 17.494141 C 98.410279 17.494141 101.5957 14.308727 101.5957 10.351562 C 101.5957 6.3944354 98.410271 3.2089844 94.453125 3.2089844 L 78.453125 3.2089844 C 74.495987 3.2089844 71.310547 6.3944354 71.310547 10.351562 C 71.310547 13.320972 73.104346 15.855025 75.671875 16.935547 L 61.810547 40.943359 L 47.949219 16.935547 C 50.516745 15.855022 52.310547 13.320968 52.310547 10.351562 C 52.310547 6.3944354 49.125115 3.2089844 45.167969 3.2089844 L 29.167969 3.2089844 z "
     transform="matrix(0.26458337,0,0,0.26458337,-12.02693,0)"
     id="rect4485-6-1-4-9-4-3-3" />
</svg>
