<?xml version="1.0" encoding="UTF-8" standalone="no"?>
<svg
   xmlns:dc="http://purl.org/dc/elements/1.1/"
   xmlns:cc="http://creativecommons.org/ns#"
   xmlns:rdf="http://www.w3.org/1999/02/22-rdf-syntax-ns#"
   xmlns:svg="http://www.w3.org/2000/svg"
   xmlns="http://www.w3.org/2000/svg"
   xmlns:sodipodi="http://sodipodi.sourceforge.net/DTD/sodipodi-0.dtd"
   xmlns:inkscape="http://www.inkscape.org/namespaces/inkscape"
   id="svg8"
   version="1.1"
   viewBox="0 0 8.6539364 33.117899"
   height="125.17"
   width="123.62"
   sodipodi:docname="Z.svg"
   inkscape:version="0.92.1 unknown">
  <sodipodi:namedview
     pagecolor="#ffffff"
     bordercolor="#666666"
     borderopacity="1"
     objecttolerance="10"
     gridtolerance="10"
     guidetolerance="10"
     inkscape:pageopacity="0"
     inkscape:pageshadow="2"
     inkscape:window-width="1816"
     inkscape:window-height="1164"
     id="namedview10"
     showgrid="false"
     inkscape:zoom="2.8371358"
     inkscape:cx="84.267816"
     inkscape:cy="50.390306"
     inkscape:window-x="104"
     inkscape:window-y="36"
     inkscape:window-maximized="1"
     inkscape:current-layer="svg8"
     units="px" />
  <defs
     id="defs2">
    <inkscape:path-effect
       effect="spiro"
       id="path-effect5049-5"
       is_visible="true" />
    <inkscape:path-effect
       effect="spiro"
       id="path-effect6687"
       is_visible="true" />
    <inkscape:path-effect
       effect="spiro"
       id="path-effect6791"
       is_visible="true" />
    <inkscape:path-effect
       effect="spiro"
       id="path-effect6831"
       is_visible="true" />
  </defs>
  <metadata
     id="metadata5">
    <rdf:RDF>
      <cc:Work
         rdf:about="">
        <dc:format>image/svg+xml</dc:format>
        <dc:type
           rdf:resource="http://purl.org/dc/dcmitype/StillImage" />
        <dc:title></dc:title>
      </cc:Work>
    </rdf:RDF>
  </metadata>
  <path
     style="opacity:1;vector-effect:none;fill:#000000;fill-opacity:1;stroke:none;stroke-width:0.98655516;stroke-linecap:round;stroke-linejoin:round;stroke-miterlimit:4;stroke-dasharray:none;stroke-dashoffset:15;stroke-opacity:1"
     d="M 34.892578 0 C 30.935451 -1.1842379e-15 27.75 3.185451 27.75 7.1425781 L 27.75 29.142578 C 27.75 33.099705 30.935451 36.285156 34.892578 36.285156 C 38.849781 36.285156 42.035156 33.099705 42.035156 29.142578 L 42.035156 21.498047 L 78.960938 21.498047 L 57.599609 58.496094 L 53.791016 56.296875 C 50.364035 54.318293 46.011774 55.485061 44.033203 58.912109 C 42.054632 62.339044 43.221468 66.691339 46.648438 68.669922 L 50.457031 70.869141 L 31.517578 103.67188 L 23.394531 103.67188 C 19.555174 103.67188 16.462891 106.76224 16.462891 110.60156 L 16.462891 111.02734 C 16.462891 114.8667 19.555174 117.95703 23.394531 117.95703 L 92.871094 117.95703 L 92.871094 118.02734 C 92.871094 121.98447 96.056507 125.16992 100.01367 125.16992 C 103.9708 125.16992 107.15625 121.98447 107.15625 118.02734 L 107.15625 96.027344 C 107.15625 92.070217 103.9708 88.884766 100.01367 88.884766 C 96.056469 88.884766 92.871094 92.070217 92.871094 96.027344 L 92.871094 103.67188 L 48.013672 103.67188 L 62.828125 78.011719 L 65.701172 79.669922 C 69.128151 81.648504 73.478474 80.48166 75.457031 77.054688 C 77.435641 73.627677 76.270719 69.27542 72.84375 67.296875 L 69.972656 65.638672 L 96.710938 19.326172 C 96.796427 19.178101 96.867943 19.026347 96.941406 18.875 C 97.878868 17.69325 98.441406 16.200746 98.441406 14.568359 L 98.441406 14.142578 C 98.441406 10.303221 95.351076 7.2128906 91.511719 7.2128906 L 42.035156 7.2128906 L 42.035156 7.1425781 C 42.035156 3.185451 38.849743 0 34.892578 0 z "
     transform="matrix(0.26458336,0,0,0.26458336,-12.02693,0)"
     id="rect4485-6-1-4-8-8-8-8" />
</svg>
